<svg aria-hidden="true" style="position: absolute; width: 0; height: 0; overflow: hidden;" version="1.1" xmlns="http://www.w3.org/2000/svg" xmlns:xlink="http://www.w3.org/1999/xlink">
  <defs>

    <!-- Close modal -->
    <symbol id="icon-x-close" viewBox="0 0 32 32">
      <path
          d="M7.626 6.245c-0.291 0.085-0.749 0.427-1.029 0.774-0.432 0.533-0.509 1.054-0.24 1.616 0.088 0.184 1.011 1.143 3.665 3.806l3.547 3.56-3.551 3.56c-3.907 3.918-3.806 3.799-3.805 4.44 0 0.449 0.157 0.77 0.586 1.199 0.429 0.43 0.75 0.586 1.199 0.586 0.634 0 0.526 0.093 4.44-3.808l3.56-3.547 3.56 3.547c3.914 3.901 3.806 3.808 4.44 3.808 0.449 0 0.77-0.157 1.199-0.586 0.43-0.429 0.586-0.75 0.586-1.199 0-0.634 0.093-0.526-3.808-4.44l-3.547-3.56 3.547-3.56c3.901-3.914 3.808-3.806 3.808-4.44 0-0.449-0.157-0.77-0.586-1.199-0.429-0.43-0.75-0.586-1.199-0.586-0.634 0-0.526-0.093-4.44 3.808l-3.56 3.547-3.56-3.547c-2.721-2.712-3.619-3.576-3.814-3.67-0.29-0.138-0.728-0.186-1-0.109z">
      </path>
    </symbol>

    <!-- GitHub -->
    <symbol id="icon-github" viewBox="0 0 32 32">
      <path 
        d="M16 0.395c-8.836 0-16 7.163-16 16 0 7.069 4.585 13.067 10.942 15.182 0.8 0.148 1.094-0.347 1.094-0.77 0-0.381-0.015-1.642-0.022-2.979-4.452 0.968-5.391-1.888-5.391-1.888-0.728-1.849-1.776-2.341-1.776-2.341-1.452-0.993 0.11-0.973 0.11-0.973 1.606 0.113 2.452 1.649 2.452 1.649 1.427 2.446 3.743 1.739 4.656 1.33 0.143-1.034 0.558-1.74 1.016-2.14-3.554-0.404-7.29-1.777-7.29-7.907 0-1.747 0.625-3.174 1.649-4.295-0.166-0.403-0.714-2.030 0.155-4.234 0 0 1.344-0.43 4.401 1.64 1.276-0.355 2.645-0.532 4.005-0.539 1.359 0.006 2.729 0.184 4.008 0.539 3.054-2.070 4.395-1.64 4.395-1.64 0.871 2.204 0.323 3.831 0.157 4.234 1.026 1.12 1.647 2.548 1.647 4.295 0 6.145-3.743 7.498-7.306 7.895 0.574 0.497 1.085 1.47 1.085 2.963 0 2.141-0.019 3.864-0.019 4.391 0 0.426 0.288 0.925 1.099 0.768 6.354-2.118 10.933-8.113 10.933-15.18 0-8.837-7.164-16-16-16z">
      </path>
    </symbol>

    <!-- LinkedIn -->
    <symbol id="icon-linkedin" viewBox="0 0 32 32">
      <path d="M16 0c-8.838 0-16 7.162-16 16s7.162 16 16 16 16-7.163 16-16-7.163-16-16-16zM25.988 25.981c-1.3 1.3-2.806 2.319-4.488 3.025-1.738 0.738-3.587 1.106-5.5 1.106-1.906 0-3.756-0.375-5.5-1.106-1.681-0.712-3.194-1.731-4.487-3.025-1.3-1.3-2.319-2.806-3.025-4.488-0.738-1.738-1.113-3.587-1.113-5.494s0.375-3.756 1.106-5.5c0.712-1.681 1.731-3.194 3.025-4.487 1.306-1.3 2.813-2.319 4.494-3.031 1.744-0.731 3.594-1.106 5.5-1.106s3.756 0.375 5.5 1.106c1.681 0.712 3.194 1.731 4.488 3.025 1.3 1.3 2.319 2.806 3.025 4.488 0.738 1.738 1.106 3.588 1.106 5.5 0 1.906-0.375 3.756-1.106 5.5-0.712 1.681-1.731 3.194-3.025 4.488z"></path>
      <path d="M8.406 12.713h3.119v9.981h-3.119v-9.981z"></path>
      <path d="M9.9 8c-1.15 0-1.906 0.744-1.906 1.731 0 0.969 0.731 1.731 1.863 1.731h0.025c1.175 0 1.906-0.769 1.9-1.731-0.025-0.988-0.731-1.731-1.881-1.731z"></path>
      <path d="M20.044 12.619c-1.788 0-2.906 0.975-3.113 1.662v-1.569h-3.506c0.044 0.831 0 9.981 0 9.981h3.506v-5.394c0-0.306-0.012-0.606 0.075-0.819 0.238-0.6 0.756-1.225 1.688-1.225 1.219 0 1.769 0.925 1.769 2.275v5.163h3.538v-5.55c0-3.088-1.738-4.525-3.956-4.525z"></path>
    </symbol>

    <!-- Email circled -->
    <symbol id="icon-email-circled" viewBox="0 0 32 32">
      <path d="M16 0c-8.837 0-16 7.163-16 16s7.163 16 16 16 16-7.163 16-16-7.163-16-16-16zM16 29.5c-7.456 0-13.5-6.044-13.5-13.5s6.044-13.5 13.5-13.5 13.5 6.044 13.5 13.5-6.044 13.5-13.5 13.5z"></path>
      <path d="M16 11h-8v10h16v-10h-8zM16 12h5.607l-5.607 3.984-5.607-3.984h5.607zM9 12.283l3.406 2.304-3.406 3.714v-6.018zM16 20h-5.775l2.848-4.964 2.928 1.979 2.928-1.979 2.848 4.964h-5.775zM23 18.301l-3.406-3.714 3.406-2.304v6.018z"></path>
    </symbol>

    <!-- Windows -->
    <symbol id="icon-windows" viewBox="0 0 32 32">
      <path d="M16 0c-8.838 0-16 7.162-16 16s7.162 16 16 16 16-7.163 16-16-7.163-16-16-16zM25.988 25.981c-1.3 1.3-2.806 2.319-4.488 3.025-1.738 0.738-3.587 1.106-5.5 1.106-1.906 0-3.756-0.375-5.5-1.106-1.681-0.712-3.194-1.731-4.487-3.025-1.3-1.3-2.319-2.806-3.025-4.488-0.738-1.738-1.113-3.587-1.113-5.494s0.375-3.756 1.106-5.5c0.712-1.681 1.731-3.194 3.025-4.487 1.306-1.3 2.813-2.319 4.494-3.031 1.744-0.731 3.594-1.106 5.5-1.106s3.756 0.375 5.5 1.106c1.681 0.712 3.194 1.731 4.488 3.025 1.3 1.3 2.319 2.806 3.025 4.488 0.738 1.738 1.106 3.588 1.106 5.5 0 1.906-0.375 3.756-1.106 5.5-0.712 1.681-1.731 3.194-3.025 4.488z"></path>
      <path d="M14.575 15.819c-0.55-0.281-1.319-0.575-2.162-0.575-0.094 0-0.194 0.006-0.287 0.012-0.844 0.069-1.613 0.287-2.156 0.475-0.156 0.056-0.325 0.119-0.494 0.188l-1.475 5.131c1.119-0.45 2.025-0.631 2.781-0.631 1.25 0 2.119 0.481 2.944 1.031 0.306-1.031 1.338-4.556 1.531-5.231-0.219-0.137-0.444-0.275-0.681-0.4z"></path>
      <path d="M16.144 16.869l-1.475 5.125c0 0 1.725 1.063 3.025 1.063 0.819 0 1.8-0.2 3.031-0.706l1.425-4.975c-1.081 0.387-2.012 0.531-2.794 0.531-1.725 0.006-2.762-0.675-3.212-1.038z"></path>
      <path d="M12.694 14.006c1.2 0.012 2.050 0.494 2.844 1.019 0.3-1.025 1.2-4.112 1.506-5.156v-0.006c0 0-1.063-0.637-1.8-0.825-0.35-0.081-0.75-0.137-1.194-0.137-0.006 0-0.012 0-0.019 0-0.75 0.012-1.65 0.194-2.756 0.65l-1.456 5.125c1.137-0.463 2.056-0.669 2.831-0.669 0.012 0 0.025 0 0.044 0z"></path>
      <path d="M17.975 10.525l-1.494 5.175c0.006 0.006 0.012 0.006 0.012 0.012 0.825 0.55 1.894 0.994 3.181 0.994 0.85 0 1.8-0.194 2.837-0.681v-0.006c0 0 0.006 0 0.012-0.006l1.475-5.081c-1.087 0.475-2.044 0.65-2.863 0.65-1.619 0.006-2.688-0.688-3.163-1.056z"></path>
    </symbol>

    <!-- Sun circled -->
    <symbol id="icon-sun-circled" viewBox="0 0 32 32">
      <path d="M16 0c-8.837 0-16 7.163-16 16s7.163 16 16 16 16-7.163 16-16-7.163-16-16-16zM16 29.5c-7.456 0-13.5-6.044-13.5-13.5s6.044-13.5 13.5-13.5 13.5 6.044 13.5 13.5-6.044 13.5-13.5 13.5z"></path>
      <path d="M16 11.692c-2.375 0-4.308 1.933-4.308 4.308s1.933 4.308 4.308 4.308 4.308-1.933 4.308-4.308-1.933-4.308-4.308-4.308zM16 19.077c-1.699 0-3.077-1.378-3.077-3.077s1.378-3.077 3.077-3.077 3.077 1.378 3.077 3.077-1.378 3.077-3.077 3.077z"></path>
      <path d="M16 8c-0.34 0-0.615 0.275-0.615 0.615v1.23c0 0.34 0.275 0.615 0.615 0.615s0.615-0.275 0.615-0.615v-1.23c0-0.34-0.275-0.615-0.615-0.615z"></path>
      <path d="M16 21.538c-0.34 0-0.615 0.276-0.615 0.616v1.23c0 0.34 0.275 0.615 0.615 0.615s0.615-0.275 0.615-0.615v-1.23c0-0.34-0.275-0.616-0.615-0.616z"></path>
      <path d="M21.656 10.343c-0.24-0.24-0.63-0.24-0.87 0l-0.87 0.87c-0.24 0.24-0.24 0.63 0 0.871s0.63 0.24 0.87 0l0.87-0.871c0.24-0.24 0.24-0.629 0-0.87z"></path>
      <path d="M12.084 19.917c-0.24-0.24-0.63-0.241-0.87 0l-0.87 0.87c-0.24 0.24-0.24 0.63 0 0.87s0.63 0.24 0.87 0l0.87-0.87c0.24-0.241 0.24-0.63 0-0.87z"></path>
      <path d="M8 16c0 0.34 0.275 0.615 0.615 0.615h1.23c0.34 0 0.615-0.275 0.615-0.615s-0.275-0.615-0.615-0.615h-1.23c-0.34 0-0.615 0.275-0.615 0.615z"></path>
      <path d="M21.538 16c0 0.34 0.276 0.615 0.616 0.615h1.23c0.34 0 0.615-0.275 0.615-0.615s-0.275-0.615-0.615-0.615h-1.23c-0.34 0-0.616 0.275-0.616 0.615z"></path>
      <path d="M10.343 10.343c-0.24 0.241-0.24 0.63 0 0.87l0.87 0.871c0.24 0.24 0.63 0.24 0.871 0s0.24-0.631 0-0.871l-0.871-0.87c-0.24-0.24-0.629-0.24-0.87 0z"></path>
      <path d="M19.917 19.916c-0.24 0.24-0.241 0.63 0 0.87l0.87 0.87c0.24 0.24 0.63 0.24 0.87 0s0.24-0.63 0-0.87l-0.87-0.87c-0.241-0.24-0.63-0.24-0.87 0z"></path>
    </symbol>

    <!-- Cloud circled -->
    <symbol id="icon-cloud-circled" viewBox="0 0 32 32">
      <path d="M22.42 17.046c0.36-0.601 0.58-1.295 0.58-2.046 0-2.209-1.791-4-4-4-1.836 0-3.366 1.244-3.837 2.93-0.546-0.57-1.312-0.93-2.163-0.93-1.656 0-3 1.344-3 3 0 0.359 0.074 0.7 0.189 1.019-0.063-0.006-0.125-0.020-0.189-0.020-1.104 0-2 1.395-2 2.5s0.896 2.5 2 2.5h12c1.105 0 2-1.395 2-2.5 0-0.96-0.678-2.261-1.58-2.454z"></path>
      <path d="M16 0c-8.837 0-16 7.163-16 16s7.163 16 16 16 16-7.163 16-16-7.163-16-16-16zM16 29.5c-7.456 0-13.5-6.044-13.5-13.5s6.044-13.5 13.5-13.5 13.5 6.044 13.5 13.5-6.044 13.5-13.5 13.5z"></path>
    </symbol>

    <!-- Luminosity -->
    <symbol id="icon-luminosity" viewBox="0 0 32 32">
      <path d="M16 0c-8.837 0-16 7.163-16 16s7.163 16 16 16 16-7.163 16-16-7.163-16-16-16zM16 29.5c-7.456 0-13.5-6.044-13.5-13.5s6.044-13.5 13.5-13.5 13.5 6.044 13.5 13.5-6.044 13.5-13.5 13.5z"></path>
      <path d="M15.5 9h1v2h-1v-2z"></path>
      <path d="M15.5 21h1v2h-1v-2z"></path>
      <path d="M20.596 10.697l0.707 0.707-1.414 1.414-0.707-0.707 1.414-1.414z"></path>
      <path d="M11.404 21.303l-0.707-0.707 1.414-1.414 0.707 0.707-1.414 1.414z"></path>
      <path d="M11.404 10.697l1.414 1.414-0.707 0.707-1.414-1.414 0.707-0.707z"></path>
      <path d="M20.596 21.303l-1.414-1.414 0.707-0.707 1.414 1.414-0.707 0.707z"></path>
      <path d="M9 15.5h2v1h-2v-1z"></path>
      <path d="M21 15.5h2v1h-2v-1z"></path>
      <path d="M16 12c-2.206 0-4 1.795-4 4s1.794 4 4 4c2.205 0 4-1.795 4-4s-1.795-4-4-4zM16 19v-6c1.654 0 3 1.346 3 3s-1.346 3-3 3z"></path>
    </symbol>
  </defs>
</svg>
