<svg aria-hidden="true" style="position: absolute; width: 0; height: 0; overflow: hidden;" version="1.1" xmlns="http://www.w3.org/2000/svg" xmlns:xlink="http://www.w3.org/1999/xlink">
  <defs>

    <!-- Close modal -->
    <symbol id="icon-x-close" viewBox="0 0 32 32">
      <path
          d="M7.626 6.245c-0.291 0.085-0.749 0.427-1.029 0.774-0.432 0.533-0.509 1.054-0.24 1.616 0.088 0.184 1.011 1.143 3.665 3.806l3.547 3.56-3.551 3.56c-3.907 3.918-3.806 3.799-3.805 4.44 0 0.449 0.157 0.77 0.586 1.199 0.429 0.43 0.75 0.586 1.199 0.586 0.634 0 0.526 0.093 4.44-3.808l3.56-3.547 3.56 3.547c3.914 3.901 3.806 3.808 4.44 3.808 0.449 0 0.77-0.157 1.199-0.586 0.43-0.429 0.586-0.75 0.586-1.199 0-0.634 0.093-0.526-3.808-4.44l-3.547-3.56 3.547-3.56c3.901-3.914 3.808-3.806 3.808-4.44 0-0.449-0.157-0.77-0.586-1.199-0.429-0.43-0.75-0.586-1.199-0.586-0.634 0-0.526-0.093-4.44 3.808l-3.56 3.547-3.56-3.547c-2.721-2.712-3.619-3.576-3.814-3.67-0.29-0.138-0.728-0.186-1-0.109z">
      </path>
    </symbol>

    <!-- GitHub -->
    <symbol id="icon-github" viewBox="0 0 32 32">
      <path 
        d="M16 0.395c-8.836 0-16 7.163-16 16 0 7.069 4.585 13.067 10.942 15.182 0.8 0.148 1.094-0.347 1.094-0.77 0-0.381-0.015-1.642-0.022-2.979-4.452 0.968-5.391-1.888-5.391-1.888-0.728-1.849-1.776-2.341-1.776-2.341-1.452-0.993 0.11-0.973 0.11-0.973 1.606 0.113 2.452 1.649 2.452 1.649 1.427 2.446 3.743 1.739 4.656 1.33 0.143-1.034 0.558-1.74 1.016-2.14-3.554-0.404-7.29-1.777-7.29-7.907 0-1.747 0.625-3.174 1.649-4.295-0.166-0.403-0.714-2.030 0.155-4.234 0 0 1.344-0.43 4.401 1.64 1.276-0.355 2.645-0.532 4.005-0.539 1.359 0.006 2.729 0.184 4.008 0.539 3.054-2.070 4.395-1.64 4.395-1.64 0.871 2.204 0.323 3.831 0.157 4.234 1.026 1.12 1.647 2.548 1.647 4.295 0 6.145-3.743 7.498-7.306 7.895 0.574 0.497 1.085 1.47 1.085 2.963 0 2.141-0.019 3.864-0.019 4.391 0 0.426 0.288 0.925 1.099 0.768 6.354-2.118 10.933-8.113 10.933-15.18 0-8.837-7.164-16-16-16z">
      </path>
    </symbol>

    <!-- LinkedIn -->
    <symbol id="icon-linkedin" viewBox="0 0 32 32">
      <path d="M16 0c-8.838 0-16 7.162-16 16s7.162 16 16 16 16-7.163 16-16-7.163-16-16-16zM25.988 25.981c-1.3 1.3-2.806 2.319-4.488 3.025-1.738 0.738-3.587 1.106-5.5 1.106-1.906 0-3.756-0.375-5.5-1.106-1.681-0.712-3.194-1.731-4.487-3.025-1.3-1.3-2.319-2.806-3.025-4.488-0.738-1.738-1.113-3.587-1.113-5.494s0.375-3.756 1.106-5.5c0.712-1.681 1.731-3.194 3.025-4.487 1.306-1.3 2.813-2.319 4.494-3.031 1.744-0.731 3.594-1.106 5.5-1.106s3.756 0.375 5.5 1.106c1.681 0.712 3.194 1.731 4.488 3.025 1.3 1.3 2.319 2.806 3.025 4.488 0.738 1.738 1.106 3.588 1.106 5.5 0 1.906-0.375 3.756-1.106 5.5-0.712 1.681-1.731 3.194-3.025 4.488z"></path>
      <path d="M8.406 12.713h3.119v9.981h-3.119v-9.981z"></path>
      <path d="M9.9 8c-1.15 0-1.906 0.744-1.906 1.731 0 0.969 0.731 1.731 1.863 1.731h0.025c1.175 0 1.906-0.769 1.9-1.731-0.025-0.988-0.731-1.731-1.881-1.731z"></path>
      <path d="M20.044 12.619c-1.788 0-2.906 0.975-3.113 1.662v-1.569h-3.506c0.044 0.831 0 9.981 0 9.981h3.506v-5.394c0-0.306-0.012-0.606 0.075-0.819 0.238-0.6 0.756-1.225 1.688-1.225 1.219 0 1.769 0.925 1.769 2.275v5.163h3.538v-5.55c0-3.088-1.738-4.525-3.956-4.525z"></path>
    </symbol>

    <!-- LinkedIn filled -->
    <symbol id="icon-linkedin-filled" viewBox="0 0 32 32">
      <path d="M16 0c-8.838 0-16 7.162-16 16s7.162 16 16 16 16-7.163 16-16-7.163-16-16-16zM11.525 22.694h-3.119v-9.981h3.119v9.981zM9.881 11.463h-0.025c-1.131 0-1.862-0.762-1.862-1.731 0-0.988 0.756-1.731 1.906-1.731s1.856 0.744 1.881 1.731c0.006 0.963-0.725 1.731-1.9 1.731zM24 22.694h-3.538v-5.163c0-1.35-0.55-2.275-1.769-2.275-0.931 0-1.45 0.625-1.688 1.225-0.087 0.212-0.075 0.512-0.075 0.819v5.394h-3.506c0 0 0.044-9.15 0-9.981h3.506v1.569c0.206-0.688 1.325-1.662 3.113-1.662 2.219 0 3.956 1.438 3.956 4.525v5.55z"></path>
    </symbol>

    <!-- Sun circled -->
    <symbol id="icon-sun-circled" viewBox="0 0 32 32">
      <path d="M16 0c-8.837 0-16 7.163-16 16s7.163 16 16 16 16-7.163 16-16-7.163-16-16-16zM16 29.5c-7.456 0-13.5-6.044-13.5-13.5s6.044-13.5 13.5-13.5 13.5 6.044 13.5 13.5-6.044 13.5-13.5 13.5z"></path>
      <path d="M16 11.692c-2.375 0-4.308 1.933-4.308 4.308s1.933 4.308 4.308 4.308 4.308-1.933 4.308-4.308-1.933-4.308-4.308-4.308zM16 19.077c-1.699 0-3.077-1.378-3.077-3.077s1.378-3.077 3.077-3.077 3.077 1.378 3.077 3.077-1.378 3.077-3.077 3.077z"></path>
      <path d="M16 8c-0.34 0-0.615 0.275-0.615 0.615v1.23c0 0.34 0.275 0.615 0.615 0.615s0.615-0.275 0.615-0.615v-1.23c0-0.34-0.275-0.615-0.615-0.615z"></path>
      <path d="M16 21.538c-0.34 0-0.615 0.276-0.615 0.616v1.23c0 0.34 0.275 0.615 0.615 0.615s0.615-0.275 0.615-0.615v-1.23c0-0.34-0.275-0.616-0.615-0.616z"></path>
      <path d="M21.656 10.343c-0.24-0.24-0.63-0.24-0.87 0l-0.87 0.87c-0.24 0.24-0.24 0.63 0 0.871s0.63 0.24 0.87 0l0.87-0.871c0.24-0.24 0.24-0.629 0-0.87z"></path>
      <path d="M12.084 19.917c-0.24-0.24-0.63-0.241-0.87 0l-0.87 0.87c-0.24 0.24-0.24 0.63 0 0.87s0.63 0.24 0.87 0l0.87-0.87c0.24-0.241 0.24-0.63 0-0.87z"></path>
      <path d="M8 16c0 0.34 0.275 0.615 0.615 0.615h1.23c0.34 0 0.615-0.275 0.615-0.615s-0.275-0.615-0.615-0.615h-1.23c-0.34 0-0.615 0.275-0.615 0.615z"></path>
      <path d="M21.538 16c0 0.34 0.276 0.615 0.616 0.615h1.23c0.34 0 0.615-0.275 0.615-0.615s-0.275-0.615-0.615-0.615h-1.23c-0.34 0-0.616 0.275-0.616 0.615z"></path>
      <path d="M10.343 10.343c-0.24 0.241-0.24 0.63 0 0.87l0.87 0.871c0.24 0.24 0.63 0.24 0.871 0s0.24-0.631 0-0.871l-0.871-0.87c-0.24-0.24-0.629-0.24-0.87 0z"></path>
      <path d="M19.917 19.916c-0.24 0.24-0.241 0.63 0 0.87l0.87 0.87c0.24 0.24 0.63 0.24 0.87 0s0.24-0.63 0-0.87l-0.87-0.87c-0.241-0.24-0.63-0.24-0.87 0z"></path>
    </symbol>

    <!-- Luminosity -->
    <symbol id="icon-luminosity" viewBox="0 0 32 32">
      <path d="M16 0c-8.837 0-16 7.163-16 16s7.163 16 16 16 16-7.163 16-16-7.163-16-16-16zM16 29.5c-7.456 0-13.5-6.044-13.5-13.5s6.044-13.5 13.5-13.5 13.5 6.044 13.5 13.5-6.044 13.5-13.5 13.5z"></path>
      <path d="M15.5 9h1v2h-1v-2z"></path>
      <path d="M15.5 21h1v2h-1v-2z"></path>
      <path d="M20.596 10.697l0.707 0.707-1.414 1.414-0.707-0.707 1.414-1.414z"></path>
      <path d="M11.404 21.303l-0.707-0.707 1.414-1.414 0.707 0.707-1.414 1.414z"></path>
      <path d="M11.404 10.697l1.414 1.414-0.707 0.707-1.414-1.414 0.707-0.707z"></path>
      <path d="M20.596 21.303l-1.414-1.414 0.707-0.707 1.414 1.414-0.707 0.707z"></path>
      <path d="M9 15.5h2v1h-2v-1z"></path>
      <path d="M21 15.5h2v1h-2v-1z"></path>
      <path d="M16 12c-2.206 0-4 1.795-4 4s1.794 4 4 4c2.205 0 4-1.795 4-4s-1.795-4-4-4zM16 19v-6c1.654 0 3 1.346 3 3s-1.346 3-3 3z"></path>
    </symbol>

    <!-- Moon -->
    <symbol id="icon-moon-circled" viewBox="0 0 32 32">
      <path d="M16 31.999c8.737 0 15.999-7.247 15.999-15.999 0-8.737-7.278-15.999-16.014-15.999-8.752 0-15.983 7.262-15.983 15.999 0 8.752 7.247 15.999 15.999 15.999zM16 29.332c-7.403 0-13.317-5.929-13.317-13.332 0-7.388 5.898-13.332 13.301-13.332 7.388 0 13.332 5.945 13.348 13.332 0.016 7.403-5.945 13.332-13.332 13.332zM20.486 19.482c-4.753 0-7.795-2.98-7.795-7.733 0-0.988 0.267-2.384 0.549-3.121 0.078-0.204 0.094-0.329 0.094-0.408 0-0.235-0.188-0.502-0.518-0.502-0.11 0-0.298 0.016-0.502 0.094-3.247 1.286-5.427 4.8-5.427 8.486 0 5.16 3.937 8.846 9.097 8.846 3.764 0 7.011-2.321 8.14-5.16 0.078-0.204 0.094-0.408 0.094-0.471 0-0.329-0.267-0.549-0.518-0.549-0.094 0-0.204 0.016-0.376 0.063-0.659 0.235-1.757 0.455-2.839 0.455z"></path>
    </symbol>

    <!-- Adjust (half-dark, half-light circle) -->
    <symbol id="icon-adjust" viewBox="0 0 32 32">
      <path d="M16 0c-8.837 0-16 7.163-16 16s7.163 16 16 16 16-7.163 16-16-7.163-16-16-16zM16 29.5c-7.456 0-13.5-6.044-13.5-13.5s6.044-13.5 13.5-13.5 13.5 6.044 13.5 13.5-6.044 13.5-13.5 13.5z"></path>
      <path d="M16 8c-4.418 0-8 3.581-8 8s3.582 8 8 8c4.419 0 8-3.582 8-8s-3.581-8-8-8zM10 16c0-3.309 3-6 6-6v12c-3 0-6-2.691-6-6z"></path>
    </symbol>

    <!-- Email filled -->
    <symbol id="icon-email-filled" viewBox="0 0 32 32">
      <path d="M31.999 16c0-8.836-7.163-15.999-15.999-15.999s-15.999 7.163-15.999 15.999c0 8.836 7.163 15.999 15.999 15.999s15.999-7.163 15.999-15.999zM8.009 11.2c0-0.88 0.712-1.6 1.592-1.6h12.799c0.88 0 1.6 0.72 1.6 1.6v9.599c0 0.88-0.72 1.6-1.6 1.6h-12.799c-0.88 0-1.6-0.72-1.6-1.6l0.008-9.599zM16 16.8l6.4-4v7.999h-12.799v-8l6.4 4zM16 15.2l6.4-4h-12.799l6.4 4z"></path>
    </symbol>

    <!-- Email -->
    <symbol id="icon-email" viewBox="0 0 32 32">
      <path d="M16 0c-8.837 0-16 7.163-16 16s7.163 16 16 16 16-7.163 16-16-7.163-16-16-16zM16 29.5c-7.456 0-13.5-6.044-13.5-13.5s6.044-13.5 13.5-13.5 13.5 6.044 13.5 13.5-6.044 13.5-13.5 13.5z"></path>
      <path d="M19.74 12.397c0.011-0.069 0.016-0.134 0.016-0.193 0-0.55-0.344-0.823-1.031-0.823-0.33 0-0.553 0.057-0.668 0.168-0.117 0.113-0.197 0.337-0.244 0.672-0.264-0.371-0.529-0.621-0.797-0.751-0.246-0.118-0.599-0.177-1.055-0.177-1.175 0-2.194 0.598-3.055 1.792-0.793 1.099-1.188 2.272-1.188 3.521 0 0.975 0.257 1.83 0.771 2.568 0.57 0.814 1.316 1.22 2.235 1.22 0.787 0 1.543-0.282 2.267-0.847 0.326 0.564 0.884 0.847 1.671 0.847 1.49 0 2.767-0.629 3.826-1.888 1.008-1.197 1.512-2.574 1.512-4.129 0-1.859-0.782-3.41-2.347-4.651-1.449-1.149-3.106-1.726-4.976-1.726-2.432 0-4.473 0.769-6.126 2.307-1.701 1.586-2.552 3.609-2.552 6.072 0 2.517 0.872 4.449 2.614 5.799 1.564 1.216 3.616 1.822 6.157 1.822 1.082 0 2.137-0.169 3.166-0.509 1.129-0.37 2.058-0.897 2.787-1.581 0.235-0.226 0.462-0.5 0.677-0.822 0.269-0.394 0.401-0.711 0.401-0.952 0-0.183-0.064-0.346-0.192-0.489s-0.282-0.214-0.46-0.214c-0.337 0-0.62 0.119-0.852 0.355-0.382 0.41-0.666 0.723-0.85 0.938-1.25 1.092-2.803 1.638-4.662 1.638-1.994 0-3.59-0.489-4.786-1.468-1.308-1.069-1.961-2.602-1.961-4.596 0-1.936 0.621-3.553 1.866-4.852s2.812-1.947 4.7-1.947c1.486 0 2.722 0.422 3.708 1.268 1.057 0.896 1.583 2.090 1.583 3.578 0 0.779-0.133 1.506-0.401 2.177-0.299 0.753-0.732 1.333-1.299 1.741-0.426 0.306-0.759 0.459-1 0.459-0.263 0-0.394-0.123-0.394-0.37 0-0.103 0.067-0.575 0.205-1.42l0.732-4.535zM16.709 16.849c-0.483 1.341-0.998 2.012-1.543 2.012-0.814 0-1.222-0.52-1.222-1.56 0-0.808 0.233-1.717 0.702-2.73 0.546-1.196 1.167-1.794 1.865-1.794 0.289 0 0.504 0.156 0.645 0.468 0.115 0.238 0.173 0.521 0.173 0.85 0 0.701-0.206 1.619-0.621 2.755z"></path>
    </symbol>

    <!-- Overflow dots (show captions) -->
    <symbol id="icon-overflowdots" viewBox="0 0 32 32">
      <path d="M7 7.667c1.111 0 2.222 0 3.333 0 0 1.111 0 2.222 0 3.333-1.111 0-2.222 0-3.333 0 0-1.111 0-2.222 0-3.333z"></path>
      <path d="M13.667 7.667c1.111 0 2.222 0 3.333 0 0 1.111 0 2.222 0 3.333-1.111 0-2.222 0-3.333 0 0-1.111 0-2.222 0-3.333z"></path>
      <path d="M20.333 7.667c1.111 0 2.222 0 3.333 0 0 1.111 0 2.222 0 3.333-1.111 0-2.222 0-3.333 0 0-1.111 0-2.222 0-3.333z"></path>
    </symbol>

    <!-- Equalizer -->
    <symbol id="icon-equalizer" viewBox="0 0 32 32">
      <path d="M5.002 12.121v-11.121c0-0.552-0.448-1-1-1s-1 0.448-1 1v11.12c-1.729 0.446-3.013 2.014-3.013 3.88s1.284 3.434 3.013 3.881v11.119c0 0.552 0.448 1 1 1s1-0.448 1-1v-11.12c1.728-0.447 3.010-2.014 3.010-3.88s-1.282-3.433-3.010-3.879zM4.013 18.001c-0.003 0-0.008-0.001-0.011-0.001s-0.008 0.001-0.013 0.002c-1.099-0.006-1.99-0.901-1.99-2.002s0.893-1.995 1.991-2.001c0.004 0 0.008 0.001 0.012 0.001s0.008-0.001 0.011-0.001c1.098 0.007 1.989 0.902 1.989 2.001s-0.891 1.994-1.989 2.001zM17.002 18.121v-17.121c0-0.552-0.448-1-1-1s-1 0.448-1 1v17.12c-1.729 0.446-3.012 2.014-3.012 3.88s1.284 3.434 3.012 3.881v5.12c0 0.552 0.448 1 1 1s1-0.448 1-1v-5.12c1.727-0.447 3.009-2.014 3.009-3.88 0-1.864-1.282-3.432-3.009-3.879zM16.013 24.001c-0.004 0-0.008-0.001-0.012-0.001s-0.008 0.001-0.013 0.002c-1.098-0.006-1.99-0.901-1.99-2.002s0.894-1.996 1.994-2.001c0.004 0 0.007 0.001 0.011 0.001s0.006-0.001 0.009-0.001c1.099 0.006 1.992 0.901 1.992 2.001s-0.892 1.994-1.99 2.001zM29.002 6.121v-5.121c0-0.552-0.448-1-1-1s-1 0.448-1 1v5.12c-1.729 0.446-3.012 2.014-3.012 3.88s1.284 3.435 3.012 3.88v17.119c0 0.552 0.448 1 1 1s1-0.448 1-1v-17.12c1.727-0.447 3.009-2.014 3.009-3.88-0.001-1.864-1.282-3.432-3.009-3.879zM28.013 12.001c-0.004 0-0.007-0.001-0.011-0.001s-0.009 0.001-0.013 0.001c-1.099-0.006-1.991-0.901-1.991-2.001s0.892-1.995 1.99-2.001c0.005 0 0.009 0.001 0.013 0.001s0.008-0.001 0.011-0.001c1.098 0.007 1.989 0.902 1.989 2.001 0.001 1.099-0.89 1.994-1.989 2.001z"></path>
    </symbol>

   
    <!-- Three dots -->
    <symbol id="icon-three-points" viewBox="0 0 32 32">
      <path d="M16 0c-8.837 0-16 7.163-16 16s7.163 16 16 16 16-7.163 16-16-7.163-16-16-16zM16 29.5c-7.456 0-13.5-6.044-13.5-13.5s6.044-13.5 13.5-13.5 13.5 6.044 13.5 13.5-6.044 13.5-13.5 13.5z"></path>
      <path d="M21.996 14c-1.105 0-1.996 0.894-1.996 1.998s0.892 2.002 1.996 2.002c1.108 0 2.004-0.897 2.004-2.002s-0.895-1.998-2.004-1.998z"></path>
      <path d="M15.996 14c-1.104 0-1.996 0.894-1.996 1.998s0.892 2.002 1.996 2.002c1.108 0 2.004-0.897 2.004-2.002s-0.895-1.998-2.004-1.998z"></path>
      <path d="M10 14c-1.105 0-2 0.894-2 1.998s0.895 2.002 2 2.002c1.104 0 2-0.897 2-2.002s-0.896-1.998-2-1.998z"></path>
    </symbol>

    <!-- Globe -->
    <symbol id="icon-globe" viewBox="0 0 32 32">
      <path d="M16 0c-8.837 0-16 7.163-16 16s7.163 16 16 16 16-7.163 16-16-7.163-16-16-16zM16 29.5c-7.456 0-13.5-6.044-13.5-13.5s6.044-13.5 13.5-13.5 13.5 6.044 13.5 13.5-6.044 13.5-13.5 13.5z"></path>
      <path d="M16 8c-4.418 0-8 3.582-8 8s3.582 8 8 8 8-3.582 8-8-3.582-8-8-8zM9.025 16.5h3.582c0.045 0.964 0.209 2.017 0.409 3h-3.069c-0.52-0.895-0.845-1.912-0.922-3zM12.607 15.5h-3.582c0.077-1.088 0.402-2.105 0.922-3h3.069c-0.2 0.983-0.364 2.036-0.409 3zM14.018 12.5h3.965c0.201 0.984 0.365 2.038 0.41 3h-4.785c0.045-0.962 0.209-2.016 0.41-3zM13.607 16.5h4.785c-0.045 0.962-0.209 2.015-0.41 3h-3.965c-0.201-0.985-0.365-2.038-0.41-3zM19.393 16.5h3.582c-0.077 1.088-0.402 2.105-0.922 3h-3.069c0.201-0.983 0.364-2.036 0.409-3zM19.393 15.5c-0.045-0.964-0.208-2.017-0.409-3h3.069c0.52 0.895 0.845 1.912 0.922 3h-3.582zM21.355 11.5h-2.593c-0.21-0.887-0.425-1.648-0.573-2.145 1.246 0.411 2.338 1.162 3.166 2.145zM17.109 9.097c0.142 0.46 0.4 1.343 0.651 2.403h-3.521c0.251-1.061 0.51-1.943 0.651-2.403 0.362-0.058 0.73-0.097 1.109-0.097s0.747 0.039 1.109 0.097zM13.813 9.355c-0.148 0.496-0.364 1.258-0.574 2.145h-2.592c0.826-0.982 1.919-1.733 3.166-2.145zM10.646 20.5h2.592c0.21 0.887 0.425 1.648 0.573 2.145-1.246-0.411-2.338-1.162-3.165-2.145zM14.891 22.903c-0.142-0.46-0.4-1.343-0.651-2.403h3.522c-0.251 1.060-0.509 1.943-0.65 2.403-0.362 0.058-0.732 0.097-1.11 0.097s-0.747-0.039-1.109-0.097zM18.189 22.645c0.149-0.496 0.364-1.258 0.574-2.145h2.591c-0.827 0.982-1.919 1.732-3.165 2.145z"></path>
    </symbol>

    <!-- Expand icon -->
    <symbol id="icon-expand" viewBox="0 0 32 32">
      <path d="M16 0c-8.837 0-16 7.163-16 16s7.163 16 16 16 16-7.163 16-16-7.163-16-16-16zM16 29.5c-7.456 0-13.5-6.044-13.5-13.5s6.044-13.5 13.5-13.5 13.5 6.044 13.5 13.5-6.044 13.5-13.5 13.5z"></path>
      <path d="M14 9h-5v5l1.5-1.5 2.5 2.5 2-2-2.5-2.5z"></path>
      <path d="M18 23h5v-5l-1.5 1.5-2.5-2.5-2 2 2.5 2.5z"></path>
      <path d="M23 14v-5h-5l1.5 1.5-2.5 2.5 2 2 2.5-2.5z"></path>
      <path d="M9 18v5h5l-1.5-1.5 2.5-2.5-2-2-2.5 2.5z"></path>
    </symbol>



  </defs>
</svg>
