<svg aria-hidden="true" style="position: absolute; width: 0; height: 0; overflow: hidden;" version="1.1" xmlns="http://www.w3.org/2000/svg" xmlns:xlink="http://www.w3.org/1999/xlink">
  <defs>

    <!-- Close modal -->
    <symbol id="icon-x-close" viewBox="0 0 32 32">
      <path
          d="M7.626 6.245c-0.291 0.085-0.749 0.427-1.029 0.774-0.432 0.533-0.509 1.054-0.24 1.616 0.088 0.184 1.011 1.143 3.665 3.806l3.547 3.56-3.551 3.56c-3.907 3.918-3.806 3.799-3.805 4.44 0 0.449 0.157 0.77 0.586 1.199 0.429 0.43 0.75 0.586 1.199 0.586 0.634 0 0.526 0.093 4.44-3.808l3.56-3.547 3.56 3.547c3.914 3.901 3.806 3.808 4.44 3.808 0.449 0 0.77-0.157 1.199-0.586 0.43-0.429 0.586-0.75 0.586-1.199 0-0.634 0.093-0.526-3.808-4.44l-3.547-3.56 3.547-3.56c3.901-3.914 3.808-3.806 3.808-4.44 0-0.449-0.157-0.77-0.586-1.199-0.429-0.43-0.75-0.586-1.199-0.586-0.634 0-0.526-0.093-4.44 3.808l-3.56 3.547-3.56-3.547c-2.721-2.712-3.619-3.576-3.814-3.67-0.29-0.138-0.728-0.186-1-0.109z">
      </path>
    </symbol>

    <!-- Email -->
    <symbol id="icon-email" viewBox="0 0 32 32">
      <path 
        d="M16 0c-8.837 0-16 7.163-16 16s7.163 16 16 16 16-7.163 16-16-7.163-16-16-16zM8 8h16c0.286 0 0.563 0.061 0.817 0.177l-8.817 10.286-8.817-10.287c0.254-0.116 0.531-0.177 0.817-0.177zM6 22v-12c0-0.042 0.002-0.084 0.004-0.125l5.864 6.842-5.8 5.8c-0.045-0.167-0.069-0.34-0.069-0.517zM24 24h-16c-0.177 0-0.35-0.024-0.517-0.069l5.691-5.691 2.826 3.297 2.826-3.297 5.691 5.691c-0.167 0.045-0.34 0.069-0.517 0.069zM26 22c0 0.177-0.024 0.35-0.069 0.517l-5.8-5.8 5.865-6.842c0.003 0.041 0.004 0.083 0.004 0.125v12z">
      </path>
    </symbol>

    <!-- Telegram -->
    <symbol id="icon-telegram" viewBox="0 0 32 32">
    <path d="M16 0c-8.838 0-16 7.162-16 16s7.162 16 16 16 16-7.163 16-16-7.163-16-16-16zM23.863 10.969l-2.625 12.369c-0.181 0.881-0.712 1.087-1.45 0.681l-4-2.956-1.919 1.869c-0.225 0.219-0.4 0.4-0.8 0.4-0.519 0-0.431-0.194-0.606-0.688l-1.363-4.475-3.956-1.231c-0.856-0.262-0.862-0.85 0.194-1.269l15.412-5.95c0.7-0.319 1.381 0.169 1.113 1.25z"></path>
    </symbol>

    <!-- GitHub -->
    <symbol id="icon-github" viewBox="0 0 32 32">
      <path 
        d="M16 0.395c-8.836 0-16 7.163-16 16 0 7.069 4.585 13.067 10.942 15.182 0.8 0.148 1.094-0.347 1.094-0.77 0-0.381-0.015-1.642-0.022-2.979-4.452 0.968-5.391-1.888-5.391-1.888-0.728-1.849-1.776-2.341-1.776-2.341-1.452-0.993 0.11-0.973 0.11-0.973 1.606 0.113 2.452 1.649 2.452 1.649 1.427 2.446 3.743 1.739 4.656 1.33 0.143-1.034 0.558-1.74 1.016-2.14-3.554-0.404-7.29-1.777-7.29-7.907 0-1.747 0.625-3.174 1.649-4.295-0.166-0.403-0.714-2.030 0.155-4.234 0 0 1.344-0.43 4.401 1.64 1.276-0.355 2.645-0.532 4.005-0.539 1.359 0.006 2.729 0.184 4.008 0.539 3.054-2.070 4.395-1.64 4.395-1.64 0.871 2.204 0.323 3.831 0.157 4.234 1.026 1.12 1.647 2.548 1.647 4.295 0 6.145-3.743 7.498-7.306 7.895 0.574 0.497 1.085 1.47 1.085 2.963 0 2.141-0.019 3.864-0.019 4.391 0 0.426 0.288 0.925 1.099 0.768 6.354-2.118 10.933-8.113 10.933-15.18 0-8.837-7.164-16-16-16z">
      </path>
    </symbol>

    <!-- LinkedIn -->
    <symbol id="icon-linkedin" viewBox="0 0 32 32">
      <path d="M16 0c-8.838 0-16 7.162-16 16s7.162 16 16 16 16-7.163 16-16-7.163-16-16-16zM25.988 25.981c-1.3 1.3-2.806 2.319-4.488 3.025-1.738 0.738-3.587 1.106-5.5 1.106-1.906 0-3.756-0.375-5.5-1.106-1.681-0.712-3.194-1.731-4.487-3.025-1.3-1.3-2.319-2.806-3.025-4.488-0.738-1.738-1.113-3.587-1.113-5.494s0.375-3.756 1.106-5.5c0.712-1.681 1.731-3.194 3.025-4.487 1.306-1.3 2.813-2.319 4.494-3.031 1.744-0.731 3.594-1.106 5.5-1.106s3.756 0.375 5.5 1.106c1.681 0.712 3.194 1.731 4.488 3.025 1.3 1.3 2.319 2.806 3.025 4.488 0.738 1.738 1.106 3.588 1.106 5.5 0 1.906-0.375 3.756-1.106 5.5-0.712 1.681-1.731 3.194-3.025 4.488z"></path>
      <path d="M8.406 12.713h3.119v9.981h-3.119v-9.981z"></path>
      <path d="M9.9 8c-1.15 0-1.906 0.744-1.906 1.731 0 0.969 0.731 1.731 1.863 1.731h0.025c1.175 0 1.906-0.769 1.9-1.731-0.025-0.988-0.731-1.731-1.881-1.731z"></path>
      <path d="M20.044 12.619c-1.788 0-2.906 0.975-3.113 1.662v-1.569h-3.506c0.044 0.831 0 9.981 0 9.981h3.506v-5.394c0-0.306-0.012-0.606 0.075-0.819 0.238-0.6 0.756-1.225 1.688-1.225 1.219 0 1.769 0.925 1.769 2.275v5.163h3.538v-5.55c0-3.088-1.738-4.525-3.956-4.525z"></path>
    </symbol>

    <!-- Document -->
    <symbol id="icon-document" viewBox="0 0 32 32">
      <path d="M28.681 7.159c-0.694-0.947-1.662-2.053-2.724-3.116s-2.169-2.030-3.116-2.724c-1.612-1.182-2.393-1.319-2.841-1.319h-15.5c-1.378 0-2.5 1.121-2.5 2.5v27c0 1.378 1.122 2.5 2.5 2.5h23c1.378 0 2.5-1.122 2.5-2.5v-19.5c0-0.448-0.137-1.23-1.319-2.841zM24.543 5.457c0.959 0.959 1.712 1.825 2.268 2.543h-4.811v-4.811c0.718 0.556 1.584 1.309 2.543 2.268zM28 29.5c0 0.271-0.229 0.5-0.5 0.5h-23c-0.271 0-0.5-0.229-0.5-0.5v-27c0-0.271 0.229-0.5 0.5-0.5 0 0 15.499-0 15.5 0v7c0 0.552 0.448 1 1 1h7v19.5z"></path>
      <path d="M23 26h-14c-0.552 0-1-0.448-1-1s0.448-1 1-1h14c0.552 0 1 0.448 1 1s-0.448 1-1 1z"></path>
      <path d="M23 22h-14c-0.552 0-1-0.448-1-1s0.448-1 1-1h14c0.552 0 1 0.448 1 1s-0.448 1-1 1z"></path>
      <path d="M23 18h-14c-0.552 0-1-0.448-1-1s0.448-1 1-1h14c0.552 0 1 0.448 1 1s-0.448 1-1 1z"></path>
    </symbol>

    <!-- Adobe PDF -->
    <symbol id="icon-pdf" viewBox="0 0 32 32">
      <path 
        d="M26.313 18.421c-0.427-0.42-1.372-0.643-2.812-0.662-0.974-0.011-2.147 0.075-3.38 0.248-0.552-0.319-1.122-0.665-1.568-1.083-1.202-1.122-2.205-2.68-2.831-4.394 0.041-0.16 0.075-0.301 0.108-0.444 0 0 0.677-3.846 0.498-5.146-0.025-0.178-0.040-0.23-0.088-0.369l-0.059-0.151c-0.184-0.425-0.545-0.875-1.111-0.85l-0.341-0.011c-0.631 0-1.146 0.323-1.281 0.805-0.411 1.514 0.013 3.778 0.781 6.711l-0.197 0.478c-0.55 1.34-1.238 2.689-1.846 3.88l-0.079 0.155c-0.639 1.251-1.22 2.313-1.745 3.213l-0.543 0.287c-0.040 0.021-0.97 0.513-1.188 0.645-1.852 1.106-3.079 2.361-3.282 3.357-0.065 0.318-0.017 0.725 0.313 0.913l0.525 0.264c0.228 0.114 0.468 0.172 0.714 0.172 1.319 0 2.85-1.643 4.959-5.324 2.435-0.793 5.208-1.452 7.638-1.815 1.852 1.043 4.129 1.767 5.567 1.767 0.255 0 0.475-0.024 0.654-0.072 0.276-0.073 0.508-0.23 0.65-0.444 0.279-0.42 0.335-0.998 0.26-1.59-0.023-0.176-0.163-0.393-0.315-0.541zM6.614 25.439c0.241-0.658 1.192-1.958 2.6-3.111 0.088-0.072 0.306-0.276 0.506-0.466-1.472 2.348-2.458 3.283-3.106 3.577zM14.951 6.24c0.424 0 0.665 1.069 0.685 2.070s-0.214 1.705-0.505 2.225c-0.241-0.77-0.357-1.984-0.357-2.778 0 0-0.018-1.517 0.177-1.517v0zM12.464 19.922c0.295-0.529 0.603-1.086 0.917-1.677 0.765-1.447 1.249-2.58 1.609-3.511 0.716 1.303 1.608 2.41 2.656 3.297 0.131 0.111 0.269 0.222 0.415 0.333-2.132 0.422-3.974 0.935-5.596 1.558v0zM25.903 19.802c-0.13 0.081-0.502 0.128-0.741 0.128-0.772 0-1.727-0.353-3.066-0.927 0.515-0.038 0.986-0.057 1.409-0.057 0.774 0 1.004-0.003 1.761 0.19s0.767 0.585 0.637 0.667v0z">
      </path>
      <path 
        d="M28.681 7.159c-0.694-0.947-1.662-2.053-2.724-3.116s-2.169-2.030-3.116-2.724c-1.612-1.182-2.393-1.319-2.841-1.319h-15.5c-1.378 0-2.5 1.121-2.5 2.5v27c0 1.378 1.121 2.5 2.5 2.5h23c1.378 0 2.5-1.122 2.5-2.5v-19.5c0-0.448-0.137-1.23-1.319-2.841v0zM24.543 5.457c0.959 0.959 1.712 1.825 2.268 2.543h-4.811v-4.811c0.718 0.556 1.584 1.309 2.543 2.268v0zM28 29.5c0 0.271-0.229 0.5-0.5 0.5h-23c-0.271 0-0.5-0.229-0.5-0.5v-27c0-0.271 0.229-0.5 0.5-0.5 0 0 15.499-0 15.5 0v7c0 0.552 0.448 1 1 1h7v19.5z">
      </path>
    </symbol>

    <!-- Moon -->
    <symbol id="icon-moon" viewBox="0 0 32 32">
      <path
          d="M30.709 17.479c-0.606 5.589-4.221 10.206-9.172 12.238l-0.099 0.036c-1.606 0.645-3.468 1.020-5.417 1.020-3.715 0-7.113-1.36-9.723-3.61l0.019 0.016c-4.441-3.849-6.203-10.155-4.384-15.749 1.857-5.494 6.683-9.5 12.521-10.134l0.066-0.006c-3.239 4.251-3.093 10.37 0.366 14.459 3.929 4.629 10.994 5.406 15.822 1.728z">
      </path>
    </symbol>

    <!-- Sun -->
    <symbol id="icon-sun" viewBox="0 0 32 32">
      <path
        d="M16 25.333c5.155 0 9.333-4.179 9.333-9.333s-4.179-9.333-9.333-9.333v0c-5.155 0-9.333 4.179-9.333 9.333s4.179 9.333 9.333 9.333v0zM16 6c0.368 0 0.667-0.298 0.667-0.667v0-3.333c0-0.368-0.298-0.667-0.667-0.667s-0.667 0.298-0.667 0.667v0 3.333c0 0.368 0.298 0.667 0.667 0.667v0zM16 26c-0.368 0-0.667 0.298-0.667 0.667v0 3.333c0 0.368 0.298 0.667 0.667 0.667s0.667-0.298 0.667-0.667v0-3.333c0-0.368-0.298-0.667-0.667-0.667v0zM6 16c0-0.368-0.298-0.667-0.667-0.667v0h-3.333c-0.368 0-0.667 0.298-0.667 0.667s0.298 0.667 0.667 0.667v0h3.333c0.368 0 0.667-0.298 0.667-0.667v0zM30 15.333h-3.333c-0.368 0-0.667 0.298-0.667 0.667s0.298 0.667 0.667 0.667v0h3.333c0.368 0 0.667-0.298 0.667-0.667s-0.298-0.667-0.667-0.667v0zM8 8.926c0.127 0.105 0.291 0.169 0.47 0.169s0.343-0.064 0.471-0.17l-0.001 0.001c0.12-0.121 0.194-0.287 0.194-0.47s-0.074-0.35-0.194-0.47l0 0-2.368-2.359c-0.123-0.14-0.303-0.229-0.504-0.229-0.37 0-0.67 0.3-0.67 0.67 0 0.201 0.088 0.381 0.228 0.503l0.001 0.001 2.373 2.354z">
      </path>
      <path
        d="M24 23.074c-0.122-0.174-0.321-0.286-0.547-0.286-0.367 0-0.665 0.298-0.665 0.665 0 0.225 0.112 0.424 0.283 0.544l0.002 0.001 2.352 2.361c0.12 0.121 0.287 0.196 0.471 0.196 0.001 0 0.003 0 0.004 0h-0c0 0 0 0 0 0 0.369 0 0.668-0.299 0.668-0.668 0-0.185-0.075-0.352-0.196-0.473v0l-2.373-2.34zM24 8.926l2.359-2.354c0.121-0.121 0.196-0.288 0.196-0.473 0-0.369-0.299-0.668-0.668-0.668-0 0-0 0-0 0h0c-0 0-0 0-0 0-0.184 0-0.352 0.075-0.472 0.196v0l-2.34 2.373c-0.174 0.122-0.286 0.321-0.286 0.547 0 0.367 0.298 0.665 0.665 0.665 0.225 0 0.424-0.112 0.544-0.283l0.001-0.002zM8 23.074l-2.373 2.352c-0.123 0.121-0.199 0.289-0.199 0.475 0 0.278 0.17 0.516 0.412 0.616l0.004 0.002c0.075 0.032 0.163 0.051 0.255 0.051 0.185 0 0.352-0.075 0.473-0.197l0-0 2.354-2.373c0.177-0.122 0.292-0.323 0.292-0.551 0-0.368-0.298-0.667-0.667-0.667-0.228 0-0.43 0.115-0.55 0.289l-0.001 0.002z">
      </path>
    </symbol>

    <!-- Email circled -->
    <symbol id="icon-email-circled" viewBox="0 0 32 32">
      <path d="M16 0c-8.837 0-16 7.163-16 16s7.163 16 16 16 16-7.163 16-16-7.163-16-16-16zM16 29.5c-7.456 0-13.5-6.044-13.5-13.5s6.044-13.5 13.5-13.5 13.5 6.044 13.5 13.5-6.044 13.5-13.5 13.5z"></path>
      <path d="M16 11h-8v10h16v-10h-8zM16 12h5.607l-5.607 3.984-5.607-3.984h5.607zM9 12.283l3.406 2.304-3.406 3.714v-6.018zM16 20h-5.775l2.848-4.964 2.928 1.979 2.928-1.979 2.848 4.964h-5.775zM23 18.301l-3.406-3.714 3.406-2.304v6.018z"></path>
    </symbol>

    <!-- Windows -->
    <symbol id="icon-windows" viewBox="0 0 32 32">
      <path d="M16 0c-8.838 0-16 7.162-16 16s7.162 16 16 16 16-7.163 16-16-7.163-16-16-16zM25.988 25.981c-1.3 1.3-2.806 2.319-4.488 3.025-1.738 0.738-3.587 1.106-5.5 1.106-1.906 0-3.756-0.375-5.5-1.106-1.681-0.712-3.194-1.731-4.487-3.025-1.3-1.3-2.319-2.806-3.025-4.488-0.738-1.738-1.113-3.587-1.113-5.494s0.375-3.756 1.106-5.5c0.712-1.681 1.731-3.194 3.025-4.487 1.306-1.3 2.813-2.319 4.494-3.031 1.744-0.731 3.594-1.106 5.5-1.106s3.756 0.375 5.5 1.106c1.681 0.712 3.194 1.731 4.488 3.025 1.3 1.3 2.319 2.806 3.025 4.488 0.738 1.738 1.106 3.588 1.106 5.5 0 1.906-0.375 3.756-1.106 5.5-0.712 1.681-1.731 3.194-3.025 4.488z"></path>
      <path d="M14.575 15.819c-0.55-0.281-1.319-0.575-2.162-0.575-0.094 0-0.194 0.006-0.287 0.012-0.844 0.069-1.613 0.287-2.156 0.475-0.156 0.056-0.325 0.119-0.494 0.188l-1.475 5.131c1.119-0.45 2.025-0.631 2.781-0.631 1.25 0 2.119 0.481 2.944 1.031 0.306-1.031 1.338-4.556 1.531-5.231-0.219-0.137-0.444-0.275-0.681-0.4z"></path>
      <path d="M16.144 16.869l-1.475 5.125c0 0 1.725 1.063 3.025 1.063 0.819 0 1.8-0.2 3.031-0.706l1.425-4.975c-1.081 0.387-2.012 0.531-2.794 0.531-1.725 0.006-2.762-0.675-3.212-1.038z"></path>
      <path d="M12.694 14.006c1.2 0.012 2.050 0.494 2.844 1.019 0.3-1.025 1.2-4.112 1.506-5.156v-0.006c0 0-1.063-0.637-1.8-0.825-0.35-0.081-0.75-0.137-1.194-0.137-0.006 0-0.012 0-0.019 0-0.75 0.012-1.65 0.194-2.756 0.65l-1.456 5.125c1.137-0.463 2.056-0.669 2.831-0.669 0.012 0 0.025 0 0.044 0z"></path>
      <path d="M17.975 10.525l-1.494 5.175c0.006 0.006 0.012 0.006 0.012 0.012 0.825 0.55 1.894 0.994 3.181 0.994 0.85 0 1.8-0.194 2.837-0.681v-0.006c0 0 0.006 0 0.012-0.006l1.475-5.081c-1.087 0.475-2.044 0.65-2.863 0.65-1.619 0.006-2.688-0.688-3.163-1.056z"></path>
    </symbol>

    <!-- Google -->
    <symbol id="icon-google" viewBox="0 0 32 32">
      <path d="M26.347 14.36l-0.12-0.467h-9.92v4.213h5.933c-0.331 1.286-1.084 2.423-2.138 3.231s-2.348 1.238-3.676 1.223c-1.732-0.014-3.397-0.675-4.667-1.853-0.624-0.615-1.121-1.348-1.462-2.155s-0.519-1.675-0.525-2.551c0.020-1.761 0.717-3.446 1.947-4.707 1.252-1.186 2.915-1.841 4.64-1.827 1.477 0.011 2.899 0.561 4 1.547l2.933-3.013c-1.933-1.725-4.436-2.675-7.027-2.667-1.425-0.008-2.838 0.264-4.158 0.801s-2.521 1.33-3.535 2.332c-1.928 2.003-3.016 4.669-3.038 7.449s1.022 5.463 2.918 7.497c1.050 1.047 2.299 1.873 3.673 2.432s2.845 0.838 4.327 0.821c1.345 0.010 2.677-0.253 3.917-0.773s2.361-1.287 3.296-2.253c1.835-2.017 2.827-4.66 2.773-7.387 0.014-0.633-0.017-1.265-0.093-1.893z"></path>
    </symbol>

    <!-- Sun circled -->
    <symbol id="icon-sun-circled" viewBox="0 0 32 32">
      <path d="M16 0c-8.837 0-16 7.163-16 16s7.163 16 16 16 16-7.163 16-16-7.163-16-16-16zM16 29.5c-7.456 0-13.5-6.044-13.5-13.5s6.044-13.5 13.5-13.5 13.5 6.044 13.5 13.5-6.044 13.5-13.5 13.5z"></path>
      <path d="M16 11.692c-2.375 0-4.308 1.933-4.308 4.308s1.933 4.308 4.308 4.308 4.308-1.933 4.308-4.308-1.933-4.308-4.308-4.308zM16 19.077c-1.699 0-3.077-1.378-3.077-3.077s1.378-3.077 3.077-3.077 3.077 1.378 3.077 3.077-1.378 3.077-3.077 3.077z"></path>
      <path d="M16 8c-0.34 0-0.615 0.275-0.615 0.615v1.23c0 0.34 0.275 0.615 0.615 0.615s0.615-0.275 0.615-0.615v-1.23c0-0.34-0.275-0.615-0.615-0.615z"></path>
      <path d="M16 21.538c-0.34 0-0.615 0.276-0.615 0.616v1.23c0 0.34 0.275 0.615 0.615 0.615s0.615-0.275 0.615-0.615v-1.23c0-0.34-0.275-0.616-0.615-0.616z"></path>
      <path d="M21.656 10.343c-0.24-0.24-0.63-0.24-0.87 0l-0.87 0.87c-0.24 0.24-0.24 0.63 0 0.871s0.63 0.24 0.87 0l0.87-0.871c0.24-0.24 0.24-0.629 0-0.87z"></path>
      <path d="M12.084 19.917c-0.24-0.24-0.63-0.241-0.87 0l-0.87 0.87c-0.24 0.24-0.24 0.63 0 0.87s0.63 0.24 0.87 0l0.87-0.87c0.24-0.241 0.24-0.63 0-0.87z"></path>
      <path d="M8 16c0 0.34 0.275 0.615 0.615 0.615h1.23c0.34 0 0.615-0.275 0.615-0.615s-0.275-0.615-0.615-0.615h-1.23c-0.34 0-0.615 0.275-0.615 0.615z"></path>
      <path d="M21.538 16c0 0.34 0.276 0.615 0.616 0.615h1.23c0.34 0 0.615-0.275 0.615-0.615s-0.275-0.615-0.615-0.615h-1.23c-0.34 0-0.616 0.275-0.616 0.615z"></path>
      <path d="M10.343 10.343c-0.24 0.241-0.24 0.63 0 0.87l0.87 0.871c0.24 0.24 0.63 0.24 0.871 0s0.24-0.631 0-0.871l-0.871-0.87c-0.24-0.24-0.629-0.24-0.87 0z"></path>
      <path d="M19.917 19.916c-0.24 0.24-0.241 0.63 0 0.87l0.87 0.87c0.24 0.24 0.63 0.24 0.87 0s0.24-0.63 0-0.87l-0.87-0.87c-0.241-0.24-0.63-0.24-0.87 0z"></path>
    </symbol>

    <!-- Cloud circled -->
    <symbol id="icon-cloud-circled" viewBox="0 0 32 32">
      <path d="M22.42 17.046c0.36-0.601 0.58-1.295 0.58-2.046 0-2.209-1.791-4-4-4-1.836 0-3.366 1.244-3.837 2.93-0.546-0.57-1.312-0.93-2.163-0.93-1.656 0-3 1.344-3 3 0 0.359 0.074 0.7 0.189 1.019-0.063-0.006-0.125-0.020-0.189-0.020-1.104 0-2 1.395-2 2.5s0.896 2.5 2 2.5h12c1.105 0 2-1.395 2-2.5 0-0.96-0.678-2.261-1.58-2.454z"></path>
      <path d="M16 0c-8.837 0-16 7.163-16 16s7.163 16 16 16 16-7.163 16-16-7.163-16-16-16zM16 29.5c-7.456 0-13.5-6.044-13.5-13.5s6.044-13.5 13.5-13.5 13.5 6.044 13.5 13.5-6.044 13.5-13.5 13.5z"></path>
    </symbol>
  </defs>
</svg>
