<svg xmlns="http://www.w3.org/2000/svg" width="600" height="400" viewBox="0 0 600 400"><rect width="100%" height="100%" fill="#778899"/><path fill="#DCDCDC" d="M123.855 184.015v27.47h-5.13v-27.47h5.13Zm10.09 27.47h-4.7v-19.49h2.87q.92 0 1.2.85l.3 1.44q.52-.57 1.08-1.04.56-.47 1.2-.82.63-.34 1.36-.54.73-.2 1.61-.2 1.84 0 3.03 1 1.19 1 1.78 2.65.45-.97 1.14-1.66.68-.7 1.5-1.13.81-.44 1.74-.65.92-.21 1.85-.21 1.61 0 2.87.5 1.25.49 2.11 1.44.85.95 1.3 2.32.44 1.37.44 3.13v12.41h-4.69v-12.41q0-1.86-.82-2.8-.81-.94-2.39-.94-.72 0-1.34.25-.62.24-1.08.71-.47.47-.73 1.17-.27.7-.27 1.61v12.41h-4.71v-12.41q0-1.95-.79-2.85-.79-.89-2.31-.89-1.03 0-1.91.5-.88.51-1.64 1.38v14.27Zm37.43-5.04v-3.28q-2.04.09-3.42.35-1.39.26-2.23.66-.83.39-1.19.93-.36.53-.36 1.16 0 1.23.73 1.76t1.91.53q1.44 0 2.5-.52 1.05-.52 2.06-1.59Zm-9.92-10.24-.84-1.5q3.37-3.08 8.1-3.08 1.71 0 3.06.57 1.35.56 2.28 1.55.93 1 1.41 2.39.49 1.39.49 3.04v12.31h-2.13q-.67 0-1.03-.2t-.57-.81l-.42-1.4q-.74.66-1.44 1.17-.7.5-1.46.84-.76.34-1.63.52-.86.18-1.91.18-1.23 0-2.28-.33-1.04-.33-1.8-1-.76-.66-1.18-1.65-.42-.99-.42-2.3 0-.74.25-1.47t.81-1.4q.56-.66 1.45-1.25.89-.59 2.2-1.03 1.3-.43 3.03-.71 1.72-.28 3.95-.33v-1.14q0-1.96-.84-2.9-.83-.94-2.41-.94-1.14 0-1.89.27-.75.26-1.32.59-.57.34-1.04.6-.46.27-1.03.27-.5 0-.84-.26-.34-.25-.55-.6Zm26.03 5.06q.87 0 1.52-.24t1.07-.66q.43-.41.65-1 .22-.59.22-1.29 0-1.45-.87-2.29-.86-.85-2.59-.85t-2.59.85q-.87.84-.87 2.29 0 .68.22 1.27t.65 1.02q.42.42 1.08.66.65.24 1.51.24Zm5.3 11.09q0-.57-.34-.93-.34-.36-.93-.56-.59-.2-1.38-.29-.79-.1-1.67-.14-.89-.05-1.83-.09-.94-.04-1.83-.15-.78.44-1.26 1.02-.49.59-.49 1.37 0 .51.26.96.26.45.82.77.56.32 1.45.5.89.19 2.18.19 1.32 0 2.27-.2t1.56-.56q.62-.35.91-.83.28-.49.28-1.06Zm-.93-19.7h5.6v1.75q0 .83-1 1.03l-1.75.32q.4 1.01.4 2.2 0 1.45-.58 2.61-.58 1.17-1.61 1.99-1.02.82-2.42 1.26-1.4.45-3.01.45-.57 0-1.1-.06-.53-.05-1.05-.15-.91.55-.91 1.24 0 .59.54.86.54.28 1.44.39.89.11 2.03.14 1.14.03 2.34.13 1.19.09 2.33.33 1.14.24 2.04.75.89.51 1.43 1.4.54.88.54 2.27 0 1.29-.63 2.5-.64 1.22-1.85 2.17-1.2.95-2.96 1.53-1.76.58-4 .58-2.2 0-3.84-.43-1.63-.43-2.72-1.14-1.08-.71-1.61-1.64-.53-.93-.53-1.94 0-1.37.82-2.29.83-.92 2.27-1.47-.77-.4-1.23-1.07-.46-.66-.46-1.74 0-.44.17-.91.16-.46.47-.92.31-.45.79-.86.47-.41 1.12-.73-1.48-.8-2.33-2.13-.84-1.33-.84-3.12 0-1.44.58-2.61t1.61-2q1.04-.82 2.45-1.26 1.42-.44 3.09-.44 1.25 0 2.36.26 1.1.26 2.01.75Zm12.27 6.84h8.86q0-.91-.26-1.72-.26-.81-.77-1.41-.51-.61-1.3-.96t-1.83-.35q-2.04 0-3.2 1.15-1.17 1.16-1.5 3.29Zm11.97 2.83h-12.06q.11 1.5.53 2.6.42 1.09 1.1 1.8.69.71 1.63 1.06.94.36 2.08.36 1.14 0 1.96-.27.83-.27 1.45-.59.62-.32 1.08-.59.47-.26.9-.26.59 0 .88.43l1.35 1.71q-.78.92-1.75 1.53-.97.62-2.02.99-1.06.37-2.15.52-1.09.15-2.12.15-2.03 0-3.78-.67t-3.04-1.99q-1.29-1.33-2.03-3.27-.75-1.95-.75-4.51 0-2 .65-3.76.65-1.75 1.85-3.06 1.21-1.3 2.95-2.06 1.74-.76 3.92-.76 1.84 0 3.4.59 1.56.59 2.68 1.72t1.76 2.77q.64 1.65.64 3.76 0 1.06-.23 1.43-.23.37-.88.37Zm13.91-19.07h4.69v28.23h-4.69v-28.23Zm9.54 8.74h4.71v19.49h-4.71v-19.49Zm5.36-5.69q0 .61-.25 1.14-.25.54-.65.94-.41.4-.96.63-.56.24-1.18.24-.61 0-1.15-.24-.54-.23-.94-.63-.4-.4-.64-.94-.24-.53-.24-1.14 0-.62.24-1.17.24-.55.64-.95.4-.4.94-.64.54-.24 1.15-.24.62 0 1.18.24.55.24.96.64.4.4.65.95.25.55.25 1.17Zm8.21 6.54.32 1.54q.59-.59 1.24-1.09.66-.51 1.39-.86.73-.35 1.57-.55.83-.2 1.82-.2 1.6 0 2.83.54 1.24.55 2.06 1.52.83.98 1.26 2.34.43 1.36.43 2.99v12.41h-4.7v-12.41q0-1.78-.81-2.76-.82-.98-2.49-.98-1.22 0-2.28.55-1.07.55-2.02 1.5v14.1h-4.69v-19.49h2.87q.91 0 1.2.85Zm17.36-9.59h4.69v16.17h.88q.47 0 .75-.13.27-.12.56-.5l4.84-5.99q.31-.4.68-.61.37-.2.96-.2h4.29l-6.06 7.24q-.64.85-1.4 1.31.39.28.71.66.31.38.6.82l6.49 9.46h-4.23q-.55 0-.95-.18-.4-.18-.67-.66l-4.98-7.39q-.26-.43-.55-.57-.28-.13-.85-.13h-1.07v8.93h-4.69v-28.23Zm29.7 8.74h4.71v19.49h-4.71v-19.49Zm5.36-5.69q0 .61-.25 1.14-.25.54-.66.94-.4.4-.96.63-.55.24-1.17.24-.61 0-1.15-.24-.54-.23-.94-.63-.4-.4-.64-.94-.24-.53-.24-1.14 0-.62.24-1.17.24-.55.64-.95.4-.4.94-.64.54-.24 1.15-.24.62 0 1.17.24.56.24.96.64.41.4.66.95.25.55.25 1.17Zm17.1 7.8-1.07 1.69q-.19.3-.4.42-.21.13-.53.13-.34 0-.73-.19-.39-.19-.9-.43-.52-.24-1.17-.43-.66-.19-1.55-.19-1.39 0-2.17.59-.79.59-.79 1.54 0 .63.41 1.05.4.43 1.08.75.67.33 1.53.58.85.26 1.74.57.88.3 1.73.69.86.39 1.53.99.68.59 1.09 1.43.41.84.41 2.02 0 1.4-.51 2.59-.5 1.19-1.49 2.05-.99.86-2.44 1.35-1.45.48-3.35.48-1.01 0-1.97-.18t-1.84-.5q-.89-.32-1.64-.76-.75-.44-1.32-.95l1.08-1.79q.21-.32.5-.49.28-.17.72-.17.44 0 .83.25.39.24.9.53.51.28 1.21.53.69.25 1.75.25.84 0 1.44-.2t.99-.53q.39-.32.57-.75.18-.42.18-.88 0-.68-.41-1.12-.41-.44-1.08-.76-.68-.32-1.54-.58-.87-.26-1.77-.56-.9-.3-1.77-.71-.86-.41-1.54-1.04-.67-.62-1.08-1.54-.41-.91-.41-2.2 0-1.2.48-2.28.47-1.08 1.39-1.89.92-.81 2.3-1.29 1.38-.49 3.18-.49 2.02 0 3.67.67 1.65.66 2.76 1.75Zm17.67 3.59v8.74q.79.97 1.74 1.36.94.4 1.98.4 1.08 0 1.95-.39.86-.39 1.47-1.21.61-.83.93-2.11.32-1.28.32-3.07 0-3.21-1.06-4.65-1.06-1.43-3.06-1.43-1.35 0-2.35.62-1.01.62-1.92 1.74Zm0-14.44v11.13q1.17-1.24 2.61-1.97 1.43-.73 3.28-.73 1.69 0 3.05.67 1.35.66 2.31 1.91.96 1.24 1.48 3.01.51 1.76.51 3.97 0 2.37-.59 4.31-.59 1.94-1.68 3.32-1.09 1.38-2.63 2.14-1.54.75-3.42.75-.91 0-1.66-.18-.74-.18-1.36-.5-.63-.32-1.15-.79-.53-.46-1-1.03l-.21 1.31q-.11.49-.39.7-.27.21-.75.21h-3.1v-28.23h4.7Zm21.01 9.91.29 2.21q.91-1.75 2.16-2.75 1.26-1 2.97-1 1.34 0 2.16.59l-.3 3.52q-.1.34-.28.48-.18.15-.48.15-.29 0-.85-.1-.56-.09-1.09-.09-.78 0-1.39.22-.61.23-1.09.66-.48.43-.85 1.04-.38.6-.7 1.38v12.01h-4.69v-19.49h2.75q.73 0 1.01.25.29.26.38.92Zm18.66-1.48q2.16 0 3.94.71 1.78.7 3.04 1.99t1.95 3.15q.68 1.87.68 4.16 0 2.32-.68 4.19-.69 1.86-1.95 3.17-1.26 1.31-3.04 2.01-1.78.7-3.94.7-2.19 0-3.97-.7-1.79-.7-3.05-2.01-1.27-1.31-1.96-3.17-.69-1.87-.69-4.19 0-2.29.69-4.16.69-1.86 1.96-3.15 1.26-1.29 3.05-1.99 1.78-.71 3.97-.71Zm0 16.48q2.43 0 3.6-1.64 1.17-1.63 1.17-4.79 0-3.15-1.17-4.8-1.17-1.66-3.6-1.66-2.47 0-3.66 1.67-1.19 1.66-1.19 4.79 0 3.14 1.19 4.78 1.19 1.65 3.66 1.65Zm13.2-24.91h4.7v16.17h.87q.48 0 .75-.13.28-.12.56-.5l4.85-5.99q.3-.4.67-.61.37-.2.96-.2h4.29l-6.06 7.24q-.64.85-1.4 1.31.4.28.71.66.31.38.6.82l6.5 9.46h-4.24q-.55 0-.95-.18-.4-.18-.67-.66l-4.97-7.39q-.27-.43-.55-.57-.29-.13-.86-.13h-1.06v8.93h-4.7v-28.23Zm24.02 16.24h8.85q0-.91-.25-1.72-.26-.81-.77-1.41-.52-.61-1.3-.96-.79-.35-1.84-.35-2.03 0-3.2 1.15-1.17 1.16-1.49 3.29Zm11.97 2.83h-12.07q.12 1.5.54 2.6.41 1.09 1.1 1.8.68.71 1.62 1.06.94.36 2.08.36 1.14 0 1.97-.27.83-.27 1.44-.59.62-.32 1.09-.59.46-.26.9-.26.59 0 .87.43l1.35 1.71q-.78.92-1.75 1.53-.96.62-2.02.99-1.05.37-2.15.52-1.09.15-2.11.15-2.04 0-3.79-.67-1.74-.67-3.04-1.99-1.29-1.33-2.03-3.27-.74-1.95-.74-4.51 0-2 .65-3.76.64-1.75 1.85-3.06 1.21-1.3 2.94-2.06 1.74-.76 3.93-.76 1.84 0 3.4.59 1.56.59 2.68 1.72t1.76 2.77q.63 1.65.63 3.76 0 1.06-.23 1.43-.22.37-.87.37Zm8.68-9.48.33 1.54q.58-.59 1.24-1.09.66-.51 1.39-.86.73-.35 1.56-.55.84-.2 1.83-.2 1.59 0 2.83.54 1.23.55 2.06 1.52.83.98 1.26 2.34.42 1.36.42 2.99v12.41h-4.69v-12.41q0-1.78-.82-2.76-.81-.98-2.49-.98-1.21 0-2.28.55-1.06.55-2.01 1.5v14.1h-4.69v-19.49h2.87q.91 0 1.19.85Zm26.3 16.06q0-.59.22-1.13.22-.53.6-.91t.91-.6q.53-.23 1.14-.23.61 0 1.13.23.52.22.91.6t.62.91q.23.54.23 1.13 0 .6-.23 1.13-.23.52-.62.9t-.91.6q-.52.22-1.13.22-.61 0-1.14-.22-.53-.22-.91-.6t-.6-.9q-.22-.53-.22-1.13Zm0-13.55q0-.59.22-1.12.22-.53.6-.91t.91-.61q.53-.23 1.14-.23.61 0 1.13.23.52.23.91.61t.62.91q.23.53.23 1.12 0 .61-.23 1.13-.23.52-.62.9t-.91.6q-.52.22-1.13.22-.61 0-1.14-.22-.53-.22-.91-.6t-.6-.9q-.22-.52-.22-1.13Zm13.22 4.22q0 3.91.95 7.69.95 3.78 2.72 7.11.19.38.22.67.03.3-.05.52-.08.21-.24.38-.16.16-.35.27l-2.09 1.27q-1.4-2.16-2.39-4.35-.99-2.18-1.62-4.4-.62-2.23-.92-4.51-.29-2.28-.29-4.65 0-2.38.29-4.67.3-2.29.92-4.51.63-2.22 1.62-4.4.99-2.17 2.39-4.34l2.09 1.25q.19.12.35.28.16.16.24.38.08.22.05.51-.03.3-.22.7-1.77 3.3-2.72 7.09-.95 3.79-.95 7.71Z"/></svg>