<svg xmlns="http://www.w3.org/2000/svg" width="1920" height="1080" viewBox="0 0 1920 1080"><rect width="100%" height="100%" fill="#DDDDDD"/><path fill="#999999" d="M414.97 461.81v127.97h-23.89V461.81h23.89Zm47 127.97h-21.86v-90.8h13.36q4.25 0 5.58 3.98l1.41 6.73q2.39-2.66 5-4.87t5.58-3.81q2.96-1.59 6.37-2.52 3.41-.93 7.48-.93 8.58 0 14.11 4.65 5.53 4.65 8.28 12.35 2.12-4.52 5.31-7.75 3.18-3.23 6.99-5.26 3.81-2.04 8.1-3.01 4.29-.98 8.63-.98 7.52 0 13.36 2.3 5.84 2.31 9.82 6.73 3.99 4.42 6.07 10.8 2.08 6.37 2.08 14.6v57.79h-21.86v-57.79q0-8.67-3.81-13.05-3.81-4.38-11.15-4.38-3.36 0-6.24 1.15-2.88 1.15-5.04 3.31-2.17 2.17-3.41 5.45-1.24 3.27-1.24 7.52v57.79h-21.95v-57.79q0-9.12-3.67-13.28-3.67-4.15-10.75-4.15-4.78 0-8.9 2.34-4.11 2.35-7.65 6.42v66.46Zm174.34-23.45v-15.31q-9.47.44-15.93 1.63-6.46 1.2-10.35 3.06-3.9 1.86-5.58 4.33-1.68 2.48-1.68 5.4 0 5.76 3.41 8.23 3.4 2.48 8.89 2.48 6.73 0 11.64-2.43 4.91-2.44 9.6-7.39Zm-46.2-47.7-3.89-7q15.66-14.33 37.7-14.33 7.97 0 14.25 2.61t10.62 7.26q4.34 4.64 6.59 11.1 2.26 6.46 2.26 14.16v57.35h-9.91q-3.1 0-4.78-.93-1.68-.93-2.66-3.76l-1.94-6.55q-3.45 3.1-6.73 5.44-3.27 2.35-6.81 3.94-3.54 1.59-7.57 2.44-4.03.84-8.89.84-5.76 0-10.62-1.55-4.87-1.55-8.41-4.65-3.54-3.1-5.49-7.7-1.95-4.6-1.95-10.71 0-3.45 1.15-6.86 1.15-3.4 3.77-6.5 2.61-3.1 6.77-5.84 4.16-2.74 10.22-4.78 6.06-2.04 14.11-3.32 8.06-1.28 18.41-1.55v-5.31q0-9.11-3.89-13.49-3.9-4.38-11.24-4.38-5.31 0-8.81 1.23-3.49 1.24-6.15 2.79-2.65 1.55-4.82 2.79-2.17 1.24-4.83 1.24-2.3 0-3.89-1.2-1.59-1.19-2.57-2.78Zm121.25 23.54q4.07 0 7.08-1.11t5-3.05q1.99-1.95 3.01-4.69 1.02-2.75 1.02-6.02 0-6.73-4.03-10.67-4.03-3.93-12.08-3.93t-12.08 3.93q-4.03 3.94-4.03 10.67 0 3.19 1.02 5.93 1.02 2.74 3.01 4.73 1.99 1.99 5.04 3.1 3.06 1.11 7.04 1.11Zm24.69 51.68q0-2.65-1.59-4.34-1.6-1.68-4.34-2.61-2.74-.93-6.42-1.37-3.67-.44-7.78-.66-4.12-.22-8.5-.4-4.38-.18-8.54-.71-3.63 2.04-5.88 4.78-2.26 2.74-2.26 6.37 0 2.39 1.19 4.47 1.2 2.08 3.81 3.59 2.61 1.5 6.77 2.34 4.16.84 10.18.84 6.1 0 10.53-.93 4.42-.93 7.3-2.56 2.88-1.64 4.2-3.9 1.33-2.25 1.33-4.91Zm-4.34-91.77h26.11v8.14q0 3.89-4.69 4.78l-8.14 1.5q1.86 4.69 1.86 10.27 0 6.72-2.7 12.17-2.7 5.44-7.48 9.25-4.78 3.8-11.28 5.88-6.51 2.08-14.03 2.08-2.66 0-5.13-.27-2.48-.26-4.87-.7-4.25 2.56-4.25 5.75 0 2.74 2.52 4.03 2.53 1.28 6.68 1.81 4.16.53 9.47.66 5.31.14 10.89.58 5.58.44 10.89 1.55 5.31 1.1 9.46 3.49 4.16 2.39 6.69 6.51 2.52 4.11 2.52 10.57 0 6.02-2.97 11.69-2.96 5.66-8.58 10.09-5.62 4.42-13.81 7.12-8.18 2.7-18.63 2.7-10.26 0-17.87-1.99-7.61-1.99-12.66-5.31-5.04-3.32-7.52-7.66-2.48-4.33-2.48-9.03 0-6.37 3.85-10.66t10.58-6.86q-3.63-1.86-5.76-4.95-2.12-3.1-2.12-8.15 0-2.03.75-4.2.75-2.17 2.21-4.29 1.47-2.13 3.68-4.03 2.21-1.9 5.22-3.41-6.9-3.71-10.84-9.91-3.94-6.19-3.94-14.51 0-6.73 2.7-12.17 2.7-5.44 7.52-9.29 4.82-3.85 11.42-5.89 6.59-2.03 14.38-2.03 5.84 0 10.97 1.19 5.14 1.2 9.38 3.5Zm57.17 31.86h41.25q0-4.25-1.2-8.01-1.19-3.76-3.58-6.6-2.39-2.83-6.07-4.47-3.67-1.63-8.54-1.63-9.46 0-14.91 5.4-5.44 5.39-6.95 15.31Zm55.76 13.18h-56.2q.53 6.99 2.48 12.08t5.13 8.41q3.19 3.32 7.57 4.96 4.38 1.63 9.69 1.63t9.16-1.23q3.85-1.24 6.73-2.75 2.87-1.5 5.04-2.74 2.17-1.24 4.2-1.24 2.75 0 4.08 2.03l6.28 7.97q-3.63 4.25-8.14 7.12-4.52 2.88-9.43 4.61-4.91 1.72-10 2.43-5.09.71-9.87.71-9.47 0-17.61-3.14-8.14-3.15-14.16-9.3t-9.47-15.22q-3.45-9.07-3.45-21.02 0-9.29 3.01-17.48 3.01-8.18 8.63-14.24 5.62-6.07 13.72-9.61 8.09-3.54 18.27-3.54 8.59 0 15.84 2.75 7.26 2.74 12.48 8.01 5.22 5.26 8.19 12.92 2.96 7.65 2.96 17.48 0 4.95-1.06 6.68-1.06 1.72-4.07 1.72Zm86.38-21.59v40.71q3.71 4.51 8.09 6.37 4.38 1.86 9.52 1.86 4.95 0 8.94-1.86 3.98-1.86 6.77-5.66 2.78-3.81 4.29-9.61 1.5-5.79 1.5-13.67 0-7.96-1.28-13.49-1.28-5.54-3.67-8.99-2.39-3.45-5.8-5.04-3.41-1.59-7.74-1.59-6.82 0-11.6 2.87-4.78 2.88-9.02 8.1Zm-2.92-22.57 1.77 8.41q5.57-6.28 12.65-10.18 7.08-3.89 16.64-3.89 7.43 0 13.58 3.1 6.15 3.09 10.62 8.98 4.47 5.88 6.91 14.51 2.43 8.63 2.43 19.78 0 10.18-2.74 18.85-2.75 8.68-7.84 15.05-5.08 6.37-12.3 9.95-7.21 3.59-16.15 3.59-7.61 0-13.01-2.35-5.4-2.34-9.64-6.5v37.17h-21.86V498.98h13.36q4.25 0 5.58 3.98Zm98.85 30.98h41.24q0-4.25-1.19-8.01-1.2-3.76-3.59-6.6-2.39-2.83-6.06-4.47-3.67-1.63-8.54-1.63-9.47 0-14.91 5.4-5.45 5.39-6.95 15.31Zm55.75 13.18h-56.19q.53 6.99 2.48 12.08 1.94 5.09 5.13 8.41 3.18 3.32 7.57 4.96 4.38 1.63 9.69 1.63t9.16-1.23q3.85-1.24 6.72-2.75 2.88-1.5 5.05-2.74 2.16-1.24 4.2-1.24 2.74 0 4.07 2.03l6.28 7.97q-3.62 4.25-8.14 7.12-4.51 2.88-9.42 4.61-4.91 1.72-10 2.43-5.09.71-9.87.71-9.47 0-17.61-3.14-8.14-3.15-14.16-9.3t-9.47-15.22q-3.45-9.07-3.45-21.02 0-9.29 3.01-17.48 3-8.18 8.62-14.24 5.62-6.07 13.72-9.61 8.1-3.54 18.28-3.54 8.58 0 15.84 2.75 7.26 2.74 12.48 8.01 5.22 5.26 8.18 12.92 2.97 7.65 2.97 17.48 0 4.95-1.06 6.68-1.07 1.72-4.08 1.72Zm40.45-44.16 1.5 7.17q2.75-2.74 5.8-5.09 3.05-2.34 6.46-3.98 3.41-1.64 7.3-2.57 3.9-.93 8.5-.93 7.43 0 13.18 2.53 5.76 2.52 9.61 7.08 3.85 4.55 5.84 10.88 1.99 6.33 1.99 13.94v57.79h-21.86v-57.79q0-8.32-3.81-12.88-3.8-4.55-11.59-4.55-5.66 0-10.62 2.56-4.95 2.57-9.38 6.99v65.67h-21.86v-90.8h13.36q4.25 0 5.58 3.98Zm137.88 59.92v-40.71q-3.71-4.52-8.1-6.38-4.38-1.85-9.42-1.85-4.96 0-8.94 1.85-3.98 1.86-6.81 5.62-2.84 3.77-4.34 9.56-1.5 5.8-1.5 13.68 0 7.96 1.28 13.49t3.67 9.03q2.39 3.49 5.84 5.04 3.45 1.55 7.7 1.55 6.82 0 11.6-2.83 4.77-2.83 9.02-8.05Zm0-104.61h21.86v131.51h-13.36q-4.34 0-5.49-3.98l-1.86-8.76q-5.48 6.28-12.61 10.17-7.12 3.9-16.59 3.9-7.44 0-13.63-3.1-6.2-3.1-10.67-8.98-4.46-5.89-6.9-14.56-2.43-8.67-2.43-19.82 0-10.09 2.74-18.77 2.74-8.67 7.88-15.04 5.13-6.37 12.3-9.96 7.17-3.58 16.11-3.58 7.61 0 13.01 2.39 5.39 2.39 9.64 6.46v-47.88Zm44.16 40.71h21.95v90.8h-21.95v-90.8Zm24.96-26.46q0 2.83-1.15 5.31-1.15 2.48-3.05 4.33-1.91 1.86-4.47 2.97-2.57 1.11-5.49 1.11-2.83 0-5.35-1.11-2.53-1.11-4.38-2.97-1.86-1.85-2.97-4.33t-1.11-5.31q0-2.92 1.11-5.49 1.11-2.57 2.97-4.42 1.85-1.86 4.38-2.97 2.52-1.11 5.35-1.11 2.92 0 5.49 1.11 2.56 1.11 4.47 2.97 1.9 1.85 3.05 4.42t1.15 5.49Zm38.23 30.44 1.51 7.17q2.74-2.74 5.79-5.09 3.06-2.34 6.46-3.98 3.41-1.64 7.31-2.57 3.89-.93 8.49-.93 7.44 0 13.19 2.53 5.75 2.52 9.6 7.08 3.85 4.55 5.84 10.88 1.99 6.33 1.99 13.94v57.79h-21.86v-57.79q0-8.32-3.8-12.88-3.81-4.55-11.6-4.55-5.66 0-10.62 2.56-4.95 2.57-9.38 6.99v65.67h-21.86v-90.8h13.37q4.25 0 5.57 3.98Zm114.08 39.21q4.07 0 7.08-1.11t5-3.05q1.99-1.95 3.01-4.69 1.02-2.75 1.02-6.02 0-6.73-4.03-10.67-4.03-3.93-12.08-3.93t-12.08 3.93q-4.03 3.94-4.03 10.67 0 3.19 1.02 5.93 1.02 2.74 3.01 4.73 1.99 1.99 5.04 3.1 3.06 1.11 7.04 1.11Zm24.69 51.68q0-2.65-1.59-4.34-1.6-1.68-4.34-2.61-2.74-.93-6.41-1.37-3.68-.44-7.79-.66-4.12-.22-8.5-.4-4.38-.18-8.54-.71-3.63 2.04-5.88 4.78-2.26 2.74-2.26 6.37 0 2.39 1.19 4.47 1.2 2.08 3.81 3.59 2.61 1.5 6.77 2.34 4.16.84 10.18.84 6.1 0 10.53-.93 4.42-.93 7.3-2.56 2.88-1.64 4.2-3.9 1.33-2.25 1.33-4.91Zm-4.34-91.77h26.11v8.14q0 3.89-4.69 4.78l-8.14 1.5q1.86 4.69 1.86 10.27 0 6.72-2.7 12.17-2.7 5.44-7.48 9.25-4.78 3.8-11.28 5.88-6.51 2.08-14.03 2.08-2.66 0-5.13-.27-2.48-.26-4.87-.7-4.25 2.56-4.25 5.75 0 2.74 2.52 4.03 2.53 1.28 6.68 1.81 4.16.53 9.47.66 5.31.14 10.89.58 5.58.44 10.89 1.55 5.31 1.1 9.46 3.49 4.16 2.39 6.69 6.51 2.52 4.11 2.52 10.57 0 6.02-2.97 11.69-2.96 5.66-8.58 10.09-5.62 4.42-13.81 7.12-8.18 2.7-18.63 2.7-10.26 0-17.87-1.99-7.61-1.99-12.66-5.31-5.04-3.32-7.52-7.66-2.48-4.33-2.48-9.03 0-6.37 3.85-10.66t10.58-6.86q-3.63-1.86-5.76-4.95-2.12-3.1-2.12-8.15 0-2.03.75-4.2.75-2.17 2.22-4.29 1.46-2.13 3.67-4.03 2.21-1.9 5.22-3.41-6.9-3.71-10.84-9.91-3.94-6.19-3.94-14.51 0-6.73 2.7-12.17 2.7-5.44 7.52-9.29 4.82-3.85 11.42-5.89 6.59-2.03 14.38-2.03 5.84 0 10.97 1.19 5.14 1.2 9.38 3.5Z"/></svg>