<svg aria-hidden="true" style="position: absolute; width: 0; height: 0; overflow: hidden;" version="1.1" xmlns="http://www.w3.org/2000/svg" xmlns:xlink="http://www.w3.org/1999/xlink">
  <defs>

    <!-- Close modal -->
    <symbol id="icon-x-close" viewBox="0 0 32 32">
      <path
          d="M7.626 6.245c-0.291 0.085-0.749 0.427-1.029 0.774-0.432 0.533-0.509 1.054-0.24 1.616 0.088 0.184 1.011 1.143 3.665 3.806l3.547 3.56-3.551 3.56c-3.907 3.918-3.806 3.799-3.805 4.44 0 0.449 0.157 0.77 0.586 1.199 0.429 0.43 0.75 0.586 1.199 0.586 0.634 0 0.526 0.093 4.44-3.808l3.56-3.547 3.56 3.547c3.914 3.901 3.806 3.808 4.44 3.808 0.449 0 0.77-0.157 1.199-0.586 0.43-0.429 0.586-0.75 0.586-1.199 0-0.634 0.093-0.526-3.808-4.44l-3.547-3.56 3.547-3.56c3.901-3.914 3.808-3.806 3.808-4.44 0-0.449-0.157-0.77-0.586-1.199-0.429-0.43-0.75-0.586-1.199-0.586-0.634 0-0.526-0.093-4.44 3.808l-3.56 3.547-3.56-3.547c-2.721-2.712-3.619-3.576-3.814-3.67-0.29-0.138-0.728-0.186-1-0.109z">
      </path>
    </symbol>

    <!-- GitHub -->
    <symbol id="icon-github" viewBox="0 0 32 32">
      <path 
        d="M16 0.395c-8.836 0-16 7.163-16 16 0 7.069 4.585 13.067 10.942 15.182 0.8 0.148 1.094-0.347 1.094-0.77 0-0.381-0.015-1.642-0.022-2.979-4.452 0.968-5.391-1.888-5.391-1.888-0.728-1.849-1.776-2.341-1.776-2.341-1.452-0.993 0.11-0.973 0.11-0.973 1.606 0.113 2.452 1.649 2.452 1.649 1.427 2.446 3.743 1.739 4.656 1.33 0.143-1.034 0.558-1.74 1.016-2.14-3.554-0.404-7.29-1.777-7.29-7.907 0-1.747 0.625-3.174 1.649-4.295-0.166-0.403-0.714-2.030 0.155-4.234 0 0 1.344-0.43 4.401 1.64 1.276-0.355 2.645-0.532 4.005-0.539 1.359 0.006 2.729 0.184 4.008 0.539 3.054-2.070 4.395-1.64 4.395-1.64 0.871 2.204 0.323 3.831 0.157 4.234 1.026 1.12 1.647 2.548 1.647 4.295 0 6.145-3.743 7.498-7.306 7.895 0.574 0.497 1.085 1.47 1.085 2.963 0 2.141-0.019 3.864-0.019 4.391 0 0.426 0.288 0.925 1.099 0.768 6.354-2.118 10.933-8.113 10.933-15.18 0-8.837-7.164-16-16-16z">
      </path>
    </symbol>

    <!-- LinkedIn -->
    <symbol id="icon-linkedin" viewBox="0 0 32 32">
      <path d="M16 0c-8.838 0-16 7.162-16 16s7.162 16 16 16 16-7.163 16-16-7.163-16-16-16zM25.988 25.981c-1.3 1.3-2.806 2.319-4.488 3.025-1.738 0.738-3.587 1.106-5.5 1.106-1.906 0-3.756-0.375-5.5-1.106-1.681-0.712-3.194-1.731-4.487-3.025-1.3-1.3-2.319-2.806-3.025-4.488-0.738-1.738-1.113-3.587-1.113-5.494s0.375-3.756 1.106-5.5c0.712-1.681 1.731-3.194 3.025-4.487 1.306-1.3 2.813-2.319 4.494-3.031 1.744-0.731 3.594-1.106 5.5-1.106s3.756 0.375 5.5 1.106c1.681 0.712 3.194 1.731 4.488 3.025 1.3 1.3 2.319 2.806 3.025 4.488 0.738 1.738 1.106 3.588 1.106 5.5 0 1.906-0.375 3.756-1.106 5.5-0.712 1.681-1.731 3.194-3.025 4.488z"></path>
      <path d="M8.406 12.713h3.119v9.981h-3.119v-9.981z"></path>
      <path d="M9.9 8c-1.15 0-1.906 0.744-1.906 1.731 0 0.969 0.731 1.731 1.863 1.731h0.025c1.175 0 1.906-0.769 1.9-1.731-0.025-0.988-0.731-1.731-1.881-1.731z"></path>
      <path d="M20.044 12.619c-1.788 0-2.906 0.975-3.113 1.662v-1.569h-3.506c0.044 0.831 0 9.981 0 9.981h3.506v-5.394c0-0.306-0.012-0.606 0.075-0.819 0.238-0.6 0.756-1.225 1.688-1.225 1.219 0 1.769 0.925 1.769 2.275v5.163h3.538v-5.55c0-3.088-1.738-4.525-3.956-4.525z"></path>
    </symbol>

    <!-- Email circled -->
    <symbol id="icon-email-circled" viewBox="0 0 32 32">
      <path d="M16 0c-8.837 0-16 7.163-16 16s7.163 16 16 16 16-7.163 16-16-7.163-16-16-16zM16 29.5c-7.456 0-13.5-6.044-13.5-13.5s6.044-13.5 13.5-13.5 13.5 6.044 13.5 13.5-6.044 13.5-13.5 13.5z"></path>
      <path d="M16 11h-8v10h16v-10h-8zM16 12h5.607l-5.607 3.984-5.607-3.984h5.607zM9 12.283l3.406 2.304-3.406 3.714v-6.018zM16 20h-5.775l2.848-4.964 2.928 1.979 2.928-1.979 2.848 4.964h-5.775zM23 18.301l-3.406-3.714 3.406-2.304v6.018z"></path>
    </symbol>

    <!-- Sun circled -->
    <symbol id="icon-sun-circled" viewBox="0 0 32 32">
      <path d="M16 0c-8.837 0-16 7.163-16 16s7.163 16 16 16 16-7.163 16-16-7.163-16-16-16zM16 29.5c-7.456 0-13.5-6.044-13.5-13.5s6.044-13.5 13.5-13.5 13.5 6.044 13.5 13.5-6.044 13.5-13.5 13.5z"></path>
      <path d="M16 11.692c-2.375 0-4.308 1.933-4.308 4.308s1.933 4.308 4.308 4.308 4.308-1.933 4.308-4.308-1.933-4.308-4.308-4.308zM16 19.077c-1.699 0-3.077-1.378-3.077-3.077s1.378-3.077 3.077-3.077 3.077 1.378 3.077 3.077-1.378 3.077-3.077 3.077z"></path>
      <path d="M16 8c-0.34 0-0.615 0.275-0.615 0.615v1.23c0 0.34 0.275 0.615 0.615 0.615s0.615-0.275 0.615-0.615v-1.23c0-0.34-0.275-0.615-0.615-0.615z"></path>
      <path d="M16 21.538c-0.34 0-0.615 0.276-0.615 0.616v1.23c0 0.34 0.275 0.615 0.615 0.615s0.615-0.275 0.615-0.615v-1.23c0-0.34-0.275-0.616-0.615-0.616z"></path>
      <path d="M21.656 10.343c-0.24-0.24-0.63-0.24-0.87 0l-0.87 0.87c-0.24 0.24-0.24 0.63 0 0.871s0.63 0.24 0.87 0l0.87-0.871c0.24-0.24 0.24-0.629 0-0.87z"></path>
      <path d="M12.084 19.917c-0.24-0.24-0.63-0.241-0.87 0l-0.87 0.87c-0.24 0.24-0.24 0.63 0 0.87s0.63 0.24 0.87 0l0.87-0.87c0.24-0.241 0.24-0.63 0-0.87z"></path>
      <path d="M8 16c0 0.34 0.275 0.615 0.615 0.615h1.23c0.34 0 0.615-0.275 0.615-0.615s-0.275-0.615-0.615-0.615h-1.23c-0.34 0-0.615 0.275-0.615 0.615z"></path>
      <path d="M21.538 16c0 0.34 0.276 0.615 0.616 0.615h1.23c0.34 0 0.615-0.275 0.615-0.615s-0.275-0.615-0.615-0.615h-1.23c-0.34 0-0.616 0.275-0.616 0.615z"></path>
      <path d="M10.343 10.343c-0.24 0.241-0.24 0.63 0 0.87l0.87 0.871c0.24 0.24 0.63 0.24 0.871 0s0.24-0.631 0-0.871l-0.871-0.87c-0.24-0.24-0.629-0.24-0.87 0z"></path>
      <path d="M19.917 19.916c-0.24 0.24-0.241 0.63 0 0.87l0.87 0.87c0.24 0.24 0.63 0.24 0.87 0s0.24-0.63 0-0.87l-0.87-0.87c-0.241-0.24-0.63-0.24-0.87 0z"></path>
    </symbol>

    <!-- Luminosity -->
    <symbol id="icon-luminosity" viewBox="0 0 32 32">
      <path d="M16 0c-8.837 0-16 7.163-16 16s7.163 16 16 16 16-7.163 16-16-7.163-16-16-16zM16 29.5c-7.456 0-13.5-6.044-13.5-13.5s6.044-13.5 13.5-13.5 13.5 6.044 13.5 13.5-6.044 13.5-13.5 13.5z"></path>
      <path d="M15.5 9h1v2h-1v-2z"></path>
      <path d="M15.5 21h1v2h-1v-2z"></path>
      <path d="M20.596 10.697l0.707 0.707-1.414 1.414-0.707-0.707 1.414-1.414z"></path>
      <path d="M11.404 21.303l-0.707-0.707 1.414-1.414 0.707 0.707-1.414 1.414z"></path>
      <path d="M11.404 10.697l1.414 1.414-0.707 0.707-1.414-1.414 0.707-0.707z"></path>
      <path d="M20.596 21.303l-1.414-1.414 0.707-0.707 1.414 1.414-0.707 0.707z"></path>
      <path d="M9 15.5h2v1h-2v-1z"></path>
      <path d="M21 15.5h2v1h-2v-1z"></path>
      <path d="M16 12c-2.206 0-4 1.795-4 4s1.794 4 4 4c2.205 0 4-1.795 4-4s-1.795-4-4-4zM16 19v-6c1.654 0 3 1.346 3 3s-1.346 3-3 3z"></path>
    </symbol>

    <!-- Moon -->
    <symbol id="icon-moon-circled" viewBox="0 0 32 32">
      <path d="M16 31.999c8.737 0 15.999-7.247 15.999-15.999 0-8.737-7.278-15.999-16.014-15.999-8.752 0-15.983 7.262-15.983 15.999 0 8.752 7.247 15.999 15.999 15.999zM16 29.332c-7.403 0-13.317-5.929-13.317-13.332 0-7.388 5.898-13.332 13.301-13.332 7.388 0 13.332 5.945 13.348 13.332 0.016 7.403-5.945 13.332-13.332 13.332zM20.486 19.482c-4.753 0-7.795-2.98-7.795-7.733 0-0.988 0.267-2.384 0.549-3.121 0.078-0.204 0.094-0.329 0.094-0.408 0-0.235-0.188-0.502-0.518-0.502-0.11 0-0.298 0.016-0.502 0.094-3.247 1.286-5.427 4.8-5.427 8.486 0 5.16 3.937 8.846 9.097 8.846 3.764 0 7.011-2.321 8.14-5.16 0.078-0.204 0.094-0.408 0.094-0.471 0-0.329-0.267-0.549-0.518-0.549-0.094 0-0.204 0.016-0.376 0.063-0.659 0.235-1.757 0.455-2.839 0.455z"></path>
    </symbol>

    <!-- Adjust (half-dark, half-light circle) -->
    <symbol id="icon-adjust" viewBox="0 0 32 32">
      <path d="M16 0c-8.837 0-16 7.163-16 16s7.163 16 16 16 16-7.163 16-16-7.163-16-16-16zM16 29.5c-7.456 0-13.5-6.044-13.5-13.5s6.044-13.5 13.5-13.5 13.5 6.044 13.5 13.5-6.044 13.5-13.5 13.5z"></path>
      <path d="M16 8c-4.418 0-8 3.581-8 8s3.582 8 8 8c4.419 0 8-3.582 8-8s-3.581-8-8-8zM10 16c0-3.309 3-6 6-6v12c-3 0-6-2.691-6-6z"></path>
    </symbol>
  </defs>
</svg>
